<svg width="111" height="29" viewBox="0 0 111 29" fill="none" xmlns="http://www.w3.org/2000/svg"><path d="M95.117.425c.366.403.733.807 1.118 1.192 2.035 2.145 4.071 4.272 6.106 6.418 1.779 1.852 3.557 3.74 5.336 5.592.293.312.569.587.899.936V1.287h2.237v18.721c-4.493-4.712-8.967-9.406-13.477-14.119v13.386H95.08V.407c.018.018.018.018.037.018zM23.77 21.182c-.55-.367-1.119-.715-1.632-1.119-2.22-1.76-3.631-4.016-4.034-6.84-.477-3.336.476-6.289 2.75-8.746 1.815-1.98 4.07-3.098 6.73-3.483 4.602-.66 9.13 1.43 11.478 5.427.623 1.064 1.027 2.2 1.265 3.429.019.055.019.128.019.238-.074-.036-.147-.055-.202-.091-3.41-1.43-6.858-1.596-10.232.055-3.41 1.65-5.482 4.382-6.106 8.141a9.591 9.591 0 00-.036 2.989zm59.904-1.504c-5.318 0-9.498-4.236-9.425-9.516.055-4.823 4.126-9.297 9.48-9.279 5.3.037 9.498 4.401 9.406 9.59-.092 5.08-4.162 9.205-9.461 9.205zm7.206-9.516c-.018-.202-.018-.514-.055-.844-.257-1.999-1.137-3.667-2.75-4.877-1.67-1.265-3.558-1.65-5.611-1.32-1.54.256-2.86.916-3.924 2.053-1.76 1.87-2.33 4.107-1.87 6.601.696 3.796 4.473 6.4 8.25 5.703 3.448-.642 5.978-3.668 5.96-7.316zm-77.03 9.13h-2.238v-8.635H3.068v8.618H.83C.813 13.297.813 7.3.813 1.305H3.05V8.53h8.544V1.305h2.256v17.988zM43.848 1.306c.055 0 .11-.018.146-.018 1.486.018 2.99.018 4.475.055 1.063.037 2.108.257 3.006.862 1.578 1.1 2.238 2.622 2.183 4.492-.037 1.229-.477 2.31-1.302 3.246-.733.806-1.65 1.283-2.696 1.466a3.604 3.604 0 01-.275.056c1.889 2.603 3.777 5.189 5.666 7.81-.11 0-.165.02-.257.02H52.54a.407.407 0 01-.367-.184c-1.668-2.42-3.355-4.823-5.042-7.243-.092-.129-.184-.184-.367-.165-.202.018-.44 0-.697 0v7.61h-2.255c.037-6.033.037-12.01.037-18.007zm2.255 8.453c.605 0 1.229.037 1.815 0a6.135 6.135 0 002.274-.587 2.377 2.377 0 001.192-1.338c.238-.66.257-1.32.146-1.999-.146-.972-.696-1.65-1.613-1.998-.789-.312-1.614-.459-2.457-.495-.44-.019-.88 0-1.339 0-.018 2.145-.018 4.29-.018 6.417zm16.045-6.4V1.306h11.478c-3.025 5.3-6.05 10.599-9.094 15.916h9.076v2.072h-12.78c3.043-5.299 6.07-10.598 9.113-15.934h-7.793zm-3.172 15.917h-2.237V1.287h2.237v17.988zM79.347 28.7c-.422-1.119-.843-2.164-1.265-3.301a386.72 386.72 0 00-1.265 3.3c-.624-1.594-1.247-3.117-1.852-4.675.055-.018.073-.018.092-.018.513-.019.513-.019.696.44.349.861.679 1.723 1.009 2.585l.073.147c.422-1.119.844-2.164 1.266-3.3a423.4 423.4 0 011.264 3.3c.037-.092.074-.147.092-.239.349-.88.715-1.778 1.027-2.677.073-.201.165-.33.422-.293.091.018.183 0 .33 0-.642 1.613-1.266 3.136-1.889 4.73zm-63.094-1.394v-3.282h.55V28.7c-1.137-1.192-2.218-2.33-3.355-3.503v3.319h-.569v-4.712c1.137 1.155 2.219 2.31 3.374 3.502zm78.625-3.355c.605.055 1.228.036 1.796.146 1.009.202 1.633.99 1.65 2.017.02 1.155-.53 1.962-1.576 2.256-.605.165-1.247.128-1.87.128V23.95zm.55 3.997c.238 0 .422.018.605 0 1.247-.11 1.889-.954 1.668-2.127-.164-.899-1.283-1.54-2.273-1.284v3.411zm-63.26.55c-.256 0-.421.018-.605 0-.055 0-.128-.073-.183-.128a82.429 82.429 0 01-1.119-1.596c-.055-.073-.165-.11-.256-.183-.019.018-.037.036-.074.055v1.852h-.55v-4.53c.514.02 1.027.02 1.54.093.532.073.917.586.936 1.173.018.605-.33 1.118-.862 1.265-.055.019-.11.037-.183.055.421.642.88 1.284 1.356 1.944zm-2.237-2.329c.349-.073.679-.11.954-.183.257-.074.367-.293.385-.55.018-.275 0-.532-.257-.697-.33-.202-.715-.257-1.118-.202.036.514.036 1.045.036 1.632zm60.326.385v1.944h-.55v-4.53c.513.038 1.026.02 1.558.11.55.092.88.588.898 1.193a1.252 1.252 0 01-.861 1.247 2.28 2.28 0 01-.184.054c.459.66.917 1.266 1.394 1.944-.238 0-.422.019-.605 0-.073 0-.147-.091-.184-.146-.385-.532-.751-1.064-1.118-1.596-.073-.11-.202-.147-.348-.22zm.018-.44c.366.019.715 0 1.008-.147.275-.128.33-.366.349-.623 0-.256-.055-.495-.312-.623-.33-.166-.679-.202-1.045-.166v1.559zM87.36 28.48c-.606.036-.661.055-.826-.477-.165-.532-.476-.752-1.027-.66-.385.055-.77.018-1.155 0-.128 0-.202.036-.275.165-.091.257-.238.476-.33.733-.073.184-.165.275-.385.257-.091-.018-.202 0-.367 0 .734-1.577 1.43-3.117 2.164-4.712.77 1.595 1.486 3.153 2.2 4.694zm-2.164-3.43c-.275.624-.514 1.211-.789 1.78h1.559c-.239-.588-.496-1.137-.77-1.78zm-51.122 3.448c.733-1.595 1.43-3.117 2.164-4.712.733 1.595 1.43 3.135 2.163 4.712-.201 0-.366.018-.531 0-.055 0-.11-.073-.147-.128l-.385-.826a.303.303 0 00-.239-.146c-.568-.019-1.136 0-1.705-.019-.128 0-.201.037-.275.165-.11.276-.238.514-.348.77-.055.148-.129.239-.312.202-.092-.036-.22-.018-.385-.018zm1.393-1.65h1.577c-.275-.587-.513-1.174-.788-1.78-.293.625-.55 1.174-.788 1.78zm33.299 1.65c.733-1.595 1.43-3.117 2.164-4.712l2.163 4.712c-.201 0-.385.018-.531 0-.056 0-.11-.073-.148-.128-.128-.275-.275-.55-.385-.844-.054-.11-.11-.147-.256-.147H70.05c-.073 0-.183.074-.201.129-.129.257-.257.495-.349.751-.073.184-.165.276-.367.257-.091-.036-.22-.018-.366-.018zm1.375-1.65H71.7c-.275-.587-.513-1.174-.788-1.78a36.406 36.406 0 01-.77 1.78zM24.283 28.48v-4.474h2.42v.495H24.87v1.247h1.76v.513h-1.778v1.687h1.815v.513c-.789.019-1.595.019-2.384.019zm36.215-4.474h2.42v.495h-1.833v1.247h1.76v.513h-1.76v1.705h1.814v.514h-2.42c.019-1.486.019-2.971.019-4.474zm40.119 3.337c.165-.037.349-.074.514-.11.055.147.073.293.128.403.147.312.495.477.862.44.33-.036.587-.293.697-.623.091-.367 0-.679-.349-.88-.183-.11-.403-.183-.605-.312-.183-.092-.385-.165-.568-.294-.715-.458-.679-1.412.037-1.851.696-.422 1.613-.184 1.943.495-.128.073-.293.165-.44.274-.239-.348-.55-.494-.954-.385-.275.074-.476.239-.513.532-.036.294.128.459.367.568.257.129.513.203.788.35.77.347 1.045.88.881 1.613-.147.678-.771 1.118-1.468 1.063a1.432 1.432 0 01-1.32-1.283zm-56.586-2.494c-.935-.624-1.852-.55-2.512.165-.587.679-.587 1.742-.018 2.439.513.605 1.485.935 2.53.165v.587c0 .054-.073.091-.128.128-.844.421-1.87.293-2.622-.349-.697-.586-.954-1.613-.66-2.511a2.4 2.4 0 012.035-1.596c.403-.037.789.018 1.155.165.165.074.275.147.239.367-.037.146-.019.293-.019.44zm14.101-.843c-.66 1.595-1.302 3.135-1.962 4.749-.679-1.614-1.302-3.154-1.962-4.75.183 0 .367-.018.532 0 .073.019.146.11.165.184.385.953.77 1.907 1.173 2.879.019.055.055.11.092.238.092-.257.183-.477.293-.697.33-.788.624-1.576.936-2.347.073-.183.146-.275.366-.256h.367zm-37.9 4.474v-3.961h-1.045v-.495h2.677v.495H20.82v3.979c-.202-.018-.385-.018-.587-.018zm27.65 0h-.568V24.5h-1.045v-.494h2.677v.495h-1.027c-.037 1.338-.037 2.64-.037 3.979zM9.56 24.006h.55v4.474h-.55v-4.474zm41.789 0h.55v4.474h-.55v-4.474z" fill="#fff"/></svg>