<?xml version="1.0" encoding="utf-8"?>
<!-- Generator: Adobe Illustrator 25.4.1, SVG Export Plug-In . SVG Version: 6.00 Build 0)  -->
<svg version="1.1" id="Layer_1" xmlns="http://www.w3.org/2000/svg" xmlns:xlink="http://www.w3.org/1999/xlink" x="0px" y="0px"
	 viewBox="0 0 640 480" style="enable-background:new 0 0 640 480;" xml:space="preserve">
<style type="text/css">
	.st0{fill:#1089C0;}
	.st1{fill:url(#SVGID_1_);}
	.st2{fill:url(#SVGID_00000174593068854581640830000018192799249481691820_);}
	.st3{fill:url(#SVGID_00000092452005423216495680000017657262217357340805_);}
	.st4{fill:#FFFFFC;}
	.st5{fill:#29B473;}
</style>
<g>
	<polygon class="st0" points="405.3,239.2 399.4,236.1 396.7,241.5 402.6,244.6 	"/>
	<polygon class="st0" points="542.6,284.4 548.5,287.8 551.3,282.2 545.4,278.9 	"/>
	<polygon class="st0" points="533.8,287.1 539.7,290.4 542.5,284.9 536.6,281.6 	"/>
	<path class="st0" d="M592.7,253.6c-2.2,0-4,1.5-5.4,4.4c-1.2,2.6-1.8,5.4-1.8,8.4c0,5.9,3.5,8.9,10.6,9c-3.1,4.8-5.6,8.1-7.6,10.1
		c-3.8,3.7-7.9,5.6-12.3,5.6c-1.1,0-4-0.6-8.7-1.8l-0.6,1.5c4.4,1.7,6.8,2.7,7.4,2.9c2.9,0.9,5.4,1.4,7.7,1.4c4.5,0,8.4-2.7,11.9-8
		c3.1-4.8,4.7-9.6,4.7-14.4v-5C598.6,258.3,596.6,253.6,592.7,253.6z M589,263.5c0-1.9,0.9-2.9,2.6-2.9c2.1,0,3.6,2.4,4.5,7.2
		C591.4,267.9,589,266.4,589,263.5z"/>
	<path class="st0" d="M609.7,221.6c-1.5,3.1-2.8,5.8-3.8,8.2c1.6,19.1,2.3,32.8,2.1,41c0,1.1-0.2,2.8-0.5,5.2l0.7,0.5
		c2.5-4.8,3.8-8.8,3.9-12.2C612.4,255.6,611.6,241.4,609.7,221.6z"/>
	<path class="st0" d="M409,253.5c-0.4-1.5-1.5-3.6-3.3-6.3l-2.8,7.2c1.8,2.4,2.9,4.2,3.4,5.4c0.7,1.8,1,4.5,1,7.9h-27.8h-42.8h-1
		h-10.4v-4.3c0-5.3-0.6-9.5-1.7-12.6c-0.4-1.1-1.3-2.7-2.7-4.7l-2.8,7.2c2.9,2.7,4.3,7.1,4.3,13.3v1.2h-22.8h-77.4h-0.6h-0.6
		c-4.1,0-7.5-0.8-10.2-2.5c-3-1.9-4.5-4.6-4.5-8c0-1.6,0.3-3.5,1.1-5.6c0.5-1.3,1-2.7,1.6-4l-1.1-0.8c-1.4,2.9-2.3,4.8-2.6,5.8
		c-1,2.8-1.5,5.6-1.5,8.3c0,9.7,5.4,14.5,16.4,14.5h2.2v0h77.4v0h23h2.7h11.4v0h42.8v0H410v-10.7C410,259.5,409.7,255.7,409,253.5z"
		/>
	<path class="st0" d="M564.3,253.5c-0.4-1.5-1.5-3.6-3.3-6.3l-2.8,7.2c1.8,2.4,2.9,4.2,3.4,5.4c0.7,1.8,1,4.5,1,7.9
		c-39.4,0-78.7,0-118.1,0c0-7.1-0.7-12.9-2.1-17.2c-1.7-5.4-4.7-9.4-9-11.9l-0.5,8.5c6.2,2.3,9.4,9.2,9.4,20.6H442h-13.8
		c-2.1,0-3.4-1.1-3.9-3.3h-0.8c-0.5,1.9-0.7,3.9-0.7,6c0,1.3,0.6,2.5,1.7,3.4c1.1,1,2.4,1.5,3.7,1.5H442h2.6c40.3,0,80.5,0,120.8,0
		v-10.7C565.3,259.5,565,255.7,564.3,253.5z"/>
	<polygon class="st0" points="303.4,241.6 309.3,244.9 312.1,239.4 306.2,236.1 	"/>
	<polygon class="st0" points="294.6,244.3 300.2,247.6 302.9,242 297.2,238.8 	"/>
	
		<radialGradient id="SVGID_1_" cx="-35.0816" cy="339.1335" r="219.7939" fx="-144.9799" fy="522.106" gradientTransform="matrix(0.9561 -1.069937e-03 1.129653e-03 1.0095 77.1656 -23.3015)" gradientUnits="userSpaceOnUse">
		<stop  offset="0.4045" style="stop-color:#29B473"/>
		<stop  offset="0.6883" style="stop-color:#28B375"/>
		<stop  offset="0.7905" style="stop-color:#26AE7C"/>
		<stop  offset="0.8633" style="stop-color:#22A687"/>
		<stop  offset="0.9222" style="stop-color:#1C9B98"/>
		<stop  offset="0.9721" style="stop-color:#148CAE"/>
		<stop  offset="1" style="stop-color:#0E81BE"/>
	</radialGradient>
	<path class="st1" d="M95.9,169.7c4.4-6.3,9-12.6,14.7-17.9c32.8-30.2,70.6-39,112.1-22.5c17.7,7,31.8,17.1,42.4,29.8
		c18.7,22.5,21.9,48.1,23.2,58.5c0.4,3.2,0.6,5.9,0.8,7.8c5.8,0,11.5,0,17.3,0c-0.1-1.9-0.2-4.6-0.6-7.9
		c-0.9-8.9-2.7-26.7-12.1-45.7c-5.2-10.4-11.9-20-20.4-28.8c-29.3-30.8-65.5-43.4-107.6-37.3c-34.8,5-62.1,22.9-82.3,51.5
		c-1,1.5-2,3-2.9,4.5c-16.7,27.2-22.1,56.5-16.2,87.8c5.5,29.2,20.3,53.2,43.4,71.9c8.2,6.6,16.9,12,26.1,16.1
		c8.1,3.7,25.3,11.5,47.7,10.8c0.6,0,1,0,1.3,0c0-5.8,0-11.7,0-17.5c-0.3,0-0.7,0-1.3,0c-7-0.3-25.5-1.1-45.5-11.4
		c-12-6.2-22.7-14.9-32.1-26.2c-20-24-27.5-51.8-23.2-82.8C82.7,195.7,88.1,182.3,95.9,169.7z"/>
	
		<radialGradient id="SVGID_00000138556002149521167910000009343867689639474824_" cx="-35.0816" cy="339.1335" r="219.7939" fx="-144.9799" fy="522.106" gradientTransform="matrix(0.9561 -1.069937e-03 1.129653e-03 1.0095 77.1656 -23.3015)" gradientUnits="userSpaceOnUse">
		<stop  offset="0.4045" style="stop-color:#29B473"/>
		<stop  offset="0.6883" style="stop-color:#28B375"/>
		<stop  offset="0.7905" style="stop-color:#26AE7C"/>
		<stop  offset="0.8633" style="stop-color:#22A687"/>
		<stop  offset="0.9222" style="stop-color:#1C9B98"/>
		<stop  offset="0.9721" style="stop-color:#148CAE"/>
		<stop  offset="1" style="stop-color:#0E81BE"/>
	</radialGradient>
	<path style="fill:url(#SVGID_00000138556002149521167910000009343867689639474824_);" d="M123.3,196.7c15.3-30.7,49.6-45,81.6-34.6
		c7.7,2.5,14.7,6.2,20.8,11c21.4,16.7,24.7,43.4,25.7,50.6c0.1,0.7,0.2,1.3,0.2,1.7c5.8,0,11.7,0,17.5,0c0-0.5-0.1-1.2-0.2-2.1
		c0,0-0.6-9.4-2.3-16.7c-8.8-37-40.9-64.6-81.6-65.3c-17-0.3-32.8,4.3-47.1,13.6c-12,7.8-21.6,17.9-28.3,30.6
		c-5.7,9.9-9.1,20.6-10,31.9c-2.5,29.9,7.4,54.9,30.4,74.3c4.9,4.2,10.2,7.6,15.7,10.4c5.1,2.6,18.1,9.2,35.2,9c0.8,0,1.4,0,1.8,0
		c0-5.8,0-11.5,0-17.3c-0.3,0-0.6,0-1.1-0.1c-4.7-0.3-14.9-1-26-6.2c-6.4-3-12.3-7-17.8-12.1c-14.2-13.3-21.2-29.9-21.4-49.3
		c-0.1-9.8,2.1-19.3,6.2-28.3C122.9,197.4,123.1,197.1,123.3,196.7z"/>
	
		<radialGradient id="SVGID_00000144324477358803930910000017416677770467037093_" cx="-35.0816" cy="339.1335" r="219.7939" fx="-144.9799" fy="522.106" gradientTransform="matrix(0.9561 -1.069937e-03 1.129653e-03 1.0095 77.1656 -23.3015)" gradientUnits="userSpaceOnUse">
		<stop  offset="0.4045" style="stop-color:#29B473"/>
		<stop  offset="0.6883" style="stop-color:#28B375"/>
		<stop  offset="0.7905" style="stop-color:#26AE7C"/>
		<stop  offset="0.8633" style="stop-color:#22A687"/>
		<stop  offset="0.9222" style="stop-color:#1C9B98"/>
		<stop  offset="0.9721" style="stop-color:#148CAE"/>
		<stop  offset="1" style="stop-color:#0E81BE"/>
	</radialGradient>
	<path style="fill:url(#SVGID_00000144324477358803930910000017416677770467037093_);" d="M324.9,152c-19.4-37.1-48-56-56-61
		c-22.2-13.9-48.1-21.9-77.8-23.8c-28.5-1.8-55.5,4.6-80.9,17.9C89.4,96,71.7,110.7,57.6,129.6c-8.4,10.6-15.1,22.3-20.4,34.8
		c-11.3,26.8-15,54.6-11.1,83.3c4.6,33.7,18.5,63.2,42,87.8c14.4,15,30.3,26.6,47.7,34.9c11.5,5.4,35.3,16.7,66,15.2
		c0.3,0,0.6,0,0.8,0c0-5.8,0-11.7,0-17.5c-0.3,0-0.8,0-1.5,0c0,0-10.4-0.1-19.2-1.6c-35.7-6-65.5-22.6-88.1-50.9
		c-29.2-36.6-38.1-78.2-27.4-123.8c4.2-17.8,12.2-34,22.7-48.9c0.3-0.3,0.6-0.6,0.9-0.9c10.8-14.3,23.7-26.4,38.9-35.8
		c20.5-12.8,42.9-19.9,67-21.2c25.3-1.4,49.6,3.4,72.1,15.3c20.5,10.8,37,24.6,49.6,41.4c0,0,20.9,28,25.9,60.5
		c1.5,9.8,2.2,21.9,2.2,21.9c0,0.8,0.1,1.4,0.1,1.8c5.7,0,11.5,0,17.2,0c0-0.4,0-0.9,0-1.5C342.6,187.5,329,159.9,324.9,152z"/>
	<g>
		<polygon class="st4" points="72.9,437 71.8,437.5 72.9,438.1 		"/>
		<g>
			<path class="st5" d="M258.5,407.4c-0.1,0-0.2-0.1-0.2-0.1c0-0.3,0-0.6,0-0.9c0.1-0.7-0.2-1-0.9-1c-1,0.1-2.1,0.1-3.1,0
				c-0.6,0-0.8,0.2-0.8,0.8c0.1,5.8,0.1,11.5,0.1,17.3c0,0.8,0.4,1.1,1.1,1.1c0.8,0,1.7,0,2.5,0c0.9,0,1.2-0.3,1.2-1.2
				c-0.1-2.9-0.1-5.7-0.1-8.6c0-0.9-0.1-1.9,0.4-2.7c1.1-2.2,1.5-3.2,4.4-2.9c0.2,0,0.5,0,0.7,0.1c0.6,0.1,0.9,0.4,1.3,0.9
				c0.8,1.1,1,2.4,1,3.7c0,3.2,0.1,6.4,0,9.5c0,0.8,0.3,1.2,1.1,1.1c0.8-0.1,1.6-0.1,2.4,0c0.9,0,1.3-0.3,1.2-1.3
				c-0.1-3,0-5.9-0.1-8.9c0-1.1,0.2-2.1,0.6-3c0.5-0.9,0.9-2,2-2.2c0.9-0.2,1.9-0.2,2.8,0c0.6,0.1,1,0.5,1.3,1c0.8,1.2,1,2.6,1,4
				c0,3,0.1,6.1,0.1,9.1c0,0.9,0.3,1.1,1.1,1.1c0.9-0.1,1.8-0.1,2.6,0c0.8,0.1,1-0.2,1-1c-0.1-1.8,0-3.6-0.1-5.4
				c-0.1-2.4,0.3-4.9-0.5-7.3c-0.3-0.8-0.4-1.7-0.9-2.5c-1.2-2-3-3.3-5.4-3.8c-0.9-0.2-1.9-0.2-2.9,0.1c-1.7,0.6-3.2,1.5-4.4,2.8
				c-0.5,0.5-0.7,0.2-0.8-0.1c-0.6-1.2-1.7-1.7-2.7-2.2c-1.3-0.6-2.6-0.8-4-0.3C260.5,405.5,259.4,406.3,258.5,407.4z"/>
			<path class="st5" d="M172.4,407.9c0-0.3-0.1-0.5,0-0.7c0.1-0.9-0.2-1.3-1.2-1.2c-1,0.1-2.1,0.1-3.1,0c-0.5,0-0.8,0.2-0.7,0.7
				c0,0.7,0,1.4,0,2c0,5.2,0.1,10.3,0.1,15.5c0,0.9,0.3,1.1,1.1,1.1c0.9-0.1,1.8,0,2.6,0c1.1,0,1.3-0.2,1.3-1.3c0-3-0.1-6-0.1-9
				c0-0.9,0-1.8,0.5-2.7c1.1-1.9,2.7-2.7,4.9-2.5c1.2,0.1,2.2,0.5,3,1.5c0.7,0.9,0.9,1.9,0.9,3c0,3.3,0.1,6.7,0.1,10
				c0,0.6,0.2,0.9,0.9,0.9c0.9-0.1,1.8-0.1,2.7,0c0.9,0.1,1.2-0.2,1.1-1.1c-0.1-2.4-0.1-4.9-0.1-7.3c0-2.4-0.1-4.7-1-7
				c-0.5-1.1-1.2-2-2.1-2.8c-1-0.9-2.3-1.1-3.5-1.5c-1.6-0.5-3.1-0.2-4.6,0.3C174.2,406.3,173.3,407.1,172.4,407.9z"/>
			<path class="st5" d="M353.6,406.6c0-0.4,0-0.7,0-0.9c0.1-0.9-0.2-1.2-1.1-1.1c-0.9,0.1-1.8,0.1-2.7,0c-0.7,0-1,0.2-0.9,0.9
				c0.1,2,0,4,0.1,5.9c0,3.8,0.1,7.6,0.1,11.4c0,0.9,0.3,1.1,1.1,1.1c0.8-0.1,1.6-0.1,2.4,0c0.9,0.1,1.2-0.2,1.2-1.2
				c-0.1-3-0.1-5.9-0.1-8.9c0-0.6,0-1.4,0.2-1.9c1.3-2.6,2.2-3.7,5.5-3.6c2,0.1,3.7,1.9,3.7,3.6c0,3.5,0.1,7,0.1,10.5
				c0,0.9,0.3,1.3,1.2,1.3c0.9-0.1,1.9-0.1,2.8,0c0.7,0,1-0.2,0.9-0.9c-0.1-2.4-0.1-4.7-0.1-7.1c0.1-2.4-0.1-4.7-0.9-7
				c-0.3-0.9-0.8-1.6-1.3-2.3c-1.2-1.6-3-2.2-4.9-2.6c-1-0.2-2.1-0.2-3.1,0.2C356.2,404.6,354.9,405.4,353.6,406.6z"/>
			<path class="st5" d="M205.4,417.4c0,2.2,0.1,4.3,0,6.5c0,0.8,0.3,1.1,1.1,1.1c0.8,0,1.6,0,2.3,0c1.4,0,1.4,0,1.4-1.3
				c0-4.2-0.1-8.3-0.1-12.5c0-0.7,0.1-1.1,0.9-1c1,0.1,2,0,3,0c0.6,0,0.8-0.2,0.8-0.8c0-1,0-2,0-3c0-0.5-0.2-0.7-0.7-0.7
				c-1.1,0-2.2,0-3.3,0c-0.3,0-0.7,0.1-0.7-0.3c-0.1-1.3-0.4-2.6,0.1-3.8c1.1-2.4,3.4-4.1,6.4-2.2c0.6,0.4,1.1,0.2,1.5-0.3
				c0.5-0.5,0.9-1.1,1.5-1.5c0.7-0.6,0.8-1,0-1.6c-1.9-1.4-4.1-1.9-6.4-1.8c-0.4,0-0.7,0.4-1.2,0.4c-1.2-0.1-2.2,0.6-3,1.2
				c-2.5,1.9-3.9,4.4-3.8,7.7c0,0.5,0,1,0,1.5c0,0.5-0.2,0.8-0.7,0.7c-0.7,0-1.5,0-2.2,0c-0.4,0-0.6,0.1-0.6,0.6c0,1.1,0,2.1,0,3.2
				c0,0.5,0.2,0.7,0.7,0.7c0.6,0,1.2,0,1.8,0c0.8-0.1,1.1,0.1,1.1,1C205.3,413.3,205.4,415.4,205.4,417.4z"/>
			<path class="st5" d="M122.9,414.3c0-3.5,0-7-0.1-10.5c0-0.8,0.2-1,1-1c2.3,0,4.5,0,6.8,0c0.6,0,0.8-0.2,0.8-0.8
				c0-1-0.1-1.9,0-2.9c0-0.6-0.2-0.8-0.8-0.8c-6.8,0.1-13.7,0.1-20.5,0.2c-0.6,0-0.8,0.2-0.7,0.8c0,1,0.1,1.9,0,2.9
				c0,0.6,0.2,0.8,0.8,0.8c2.2,0,4.4,0,6.6-0.1c1,0,1.3,0.2,1.3,1.2c0,6.8,0.1,13.7,0.1,20.5c0,0.9,0.4,1.2,1.2,1.2
				c0.9,0,1.8-0.1,2.6,0c0.8,0.1,1.1-0.2,1-1C123,421.2,123,417.7,122.9,414.3z"/>
			<path class="st5" d="M190.9,419.9c-0.6,0-1.2,0-1.9,0c-0.4,0-0.7,0.2-0.5,0.6c0.3,1,0.6,2,1.3,2.8c1.6,1.8,3.5,2.2,5.8,2.1
				c2.1-0.1,3.5-1.1,4.7-2.8c1.7-2.3,0.7-6.2-1.7-7.7c-1.5-0.9-3-1.8-4.5-2.7c-0.4-0.2-0.8-0.5-0.8-1c0-0.5-0.1-1,0.4-1.3
				c0.7-0.3,1.4-0.4,2,0.1c0.3,0.2,0.4,0.4,0.8,0.2c1-0.6,2-1.2,3-1.8c0.6-0.3,0.5-0.6,0.2-1c-1.1-1.4-2.7-2-4.4-2.3
				c-1.8-0.3-3.4,0.4-4.8,1.6c-0.8,0.6-1.4,1.3-1.7,2.2c-0.4,1.3-0.5,2.6,0,3.9c0.5,1.3,1.4,2.3,2.5,3.1c1.3,0.9,2.8,1.7,4.2,2.5
				c0.9,0.5,1,1.3,0.3,2.1c-0.7,0.8-1.4,1-2.1,0.1c-0.6-0.7-1.1-0.8-1.9-0.7C191.5,420,191.2,419.9,190.9,419.9z"/>
			<path class="st5" d="M310,416.6c0,2.2,0.1,4.4,0,6.6c0,0.6,0.2,0.8,0.8,0.8c1,0,2-0.1,3,0c0.7,0,0.9-0.2,0.9-0.9
				c-0.1-4.1,0-8.2-0.1-12.4c0-1.4,0.4-1.6,1.5-1.6c1.8,0,1.8,0,1.8-1.8c0-2.3,0-2.4-2.4-2.3c-0.8,0-1-0.2-1-1c0-2.3,0-4.7,0-7
				c0-0.7-0.1-1-0.9-0.9c-1,0.1-1.9,0.1-2.9,0c-0.7,0-0.9,0.2-0.9,0.9c0.1,2.3,0,4.6,0.1,6.9c0,0.9-0.2,1.2-1.2,1.2c-2-0.1-2,0-2,2
				c0,2.2,0,2.2,2.2,2.1c0.8,0,1,0.3,1,1C309.9,412.3,310,414.4,310,416.6z"/>
			<path class="st5" d="M136.5,408.2c-0.3-0.2-0.2-0.5-0.2-0.8c0.1-0.9-0.2-1.2-1.1-1.1c-1,0.1-1.9,0.1-2.9,0
				c-0.7,0-0.8,0.2-0.8,0.8c0,2.6,0.1,5.3,0.1,7.9c0,3.1,0.1,6.2,0.1,9.3c0,0.9,0.3,1.3,1.2,1.2c0.8-0.1,1.6-0.1,2.3,0
				c0.9,0,1.2-0.4,1.2-1.3c-0.1-2.6,0-5.1-0.1-7.7c0-1.2,0.1-2.4,0.5-3.5c0.5-1.1,1.3-2.2,2.3-2.6c1.4-0.6,3-0.7,4.5,0.1
				c0.4,0.2,0.6,0.1,0.9-0.2c0.6-1.1,1.3-2.2,1.9-3.3c0.1-0.2,0.1-0.5-0.3-0.6c-1.1-0.3-2.1-0.9-3.3-1
				C140.3,405.4,138.2,406.5,136.5,408.2z"/>
			<path class="st5" d="M242.2,407.5c-0.1,0-0.2-0.1-0.2-0.1c0-0.3,0-0.6,0-0.9c0.1-0.8-0.3-1-1-0.9c-0.9,0.1-1.9,0.1-2.8,0
				c-0.6,0-0.7,0.2-0.7,0.7c0,1,0,2,0,3c0,4.8,0.1,9.6,0.1,14.4c0,0.9,0.3,1.2,1.2,1.1c0.8-0.1,1.6-0.1,2.4,0c0.7,0,1-0.2,0.9-0.9
				c-0.1-2.7,0-5.3-0.1-8c0-1.2,0.2-2.3,0.7-3.4c1.3-3.3,4.4-3.7,6.9-2.6c0.3,0.1,0.4,0.1,0.6-0.1c0.7-1,1.4-2,1.8-3.2
				c0.2-0.5,0.1-0.8-0.5-0.9c-0.7-0.2-1.3-0.6-2-0.7c-0.9-0.2-1.9-0.3-2.8,0C245,405.4,243.4,406.1,242.2,407.5z"/>
			<path class="st5" d="M320.1,414.4c0,2.9,0.1,5.8,0.1,8.7c0,0.6,0.1,0.9,0.8,0.8c1.1-0.1,2.1-0.1,3.2,0c0.6,0,0.7-0.2,0.7-0.7
				c-0.1-5.8-0.1-11.7-0.1-17.5c0-0.6-0.2-0.8-0.8-0.7c-1,0-2.1,0.1-3.1,0c-0.7,0-0.8,0.2-0.8,0.8
				C320.1,408.6,320.1,411.5,320.1,414.4z"/>
			<path class="st5" d="M322.4,395.7c-1.9,0-3.1,1-2.9,2.8c0.2,1.6,0.9,2.8,3.2,2.7c1.7,0,2.6-1.1,2.6-2.9
				C325.3,396.9,324.2,395.5,322.4,395.7z"/>
			<path class="st5" d="M258.5,407.4c0.9-1.1,2-1.9,3.3-2.4c1.4-0.6,2.7-0.4,4,0.3c1.1,0.5,2.1,1.1,2.7,2.2c0.1,0.3,0.4,0.6,0.8,0.1
				c1.2-1.4,2.7-2.3,4.4-2.8c0.9-0.3,2-0.3,2.9-0.1c2.3,0.5,4.1,1.7,5.4,3.8c0.5,0.8,0.6,1.7,0.9,2.5c0.8,2.4,0.4,4.9,0.5,7.3
				c0.1,1.8,0,3.6,0.1,5.4c0,0.8-0.2,1-1,1c-0.9-0.1-1.8-0.1-2.6,0c-0.9,0.1-1.1-0.2-1.1-1.1c0-3,0-6.1-0.1-9.1c0-1.4-0.2-2.8-1-4
				c-0.3-0.5-0.7-0.9-1.3-1c-0.9-0.2-1.9-0.2-2.8,0c-1.1,0.3-1.6,1.3-2,2.2c-0.5,0.9-0.7,1.9-0.6,3c0.1,3,0,5.9,0.1,8.9
				c0,0.9-0.3,1.3-1.2,1.3c-0.8,0-1.6,0-2.4,0c-0.9,0.1-1.1-0.3-1.1-1.1c0-3.2-0.1-6.4,0-9.5c0-1.3-0.2-2.6-1-3.7
				c-0.3-0.5-0.7-0.8-1.3-0.9c-0.2,0-0.5,0-0.7-0.1c-2.8-0.3-3.2,0.7-4.4,2.9c-0.4,0.9-0.4,1.8-0.4,2.7c0,2.9,0,5.7,0.1,8.6
				c0,0.9-0.3,1.2-1.2,1.2c-0.8,0-1.7,0-2.5,0c-0.7,0-1.1-0.3-1.1-1.1c0-5.8-0.1-11.5-0.1-17.3c0-0.6,0.2-0.9,0.8-0.8
				c1,0,2.1,0,3.1,0c0.8,0,1,0.2,0.9,1c0,0.3,0,0.6,0,0.9C258.4,407.3,258.4,407.3,258.5,407.4z"/>
			<path class="st5" d="M160.2,423.5c-1,0.7-1.9,1.4-2.9,1.8c-2.1,0.7-4.3,0.8-6.4-0.1c-2.1-0.9-3.5-2.7-4.6-4.6
				c-0.4-0.6-0.4-1.3-0.6-2c-0.7-2-0.4-4,0.2-6.1c0.5-2,1.6-3.5,3-4.9c1.9-1.8,5.6-3,8.3-1.6c1,0.5,2,1.1,3,1.9
				c0.2-1.8,0.2-1.8,2-1.8c0.6,0,1.2,0,1.8,0c0.7-0.1,1,0.1,1,0.9c0,5.8,0.1,11.6,0.1,17.3c0,0.8-0.2,1.1-1,1.1
				c-0.9-0.1-1.8-0.1-2.6,0c-0.8,0.1-1.2-0.2-1.1-1C160.3,424.2,160.2,423.9,160.2,423.5z M150,415.7c-0.2,2.2,1.3,4.6,3.5,5.4
				c1.3,0.5,2.5,0.4,3.8-0.2c1.3-0.6,2-1.7,2.5-2.7c0.5-1,1-2.3,0.6-3.4c-0.3-0.9-0.6-1.9-1.2-2.8c-1.2-1.7-4.7-2.8-6.3-1.6
				C151.2,411.7,149.8,413.3,150,415.7z"/>
			<path class="st5" d="M299.7,406.9c0.1-1.8,0.1-1.8,1.8-1.8c0.7,0,1.5,0,2.2,0c0.5,0,0.7,0.1,0.7,0.7c0,5.9,0.1,11.9,0.1,17.8
				c0,0.6-0.2,0.8-0.8,0.8c-0.9,0-1.9-0.1-2.8,0c-0.9,0.1-1.2-0.2-1.1-1.1c0-0.2,0-0.4,0-0.7c-1-0.3-1.3,0.7-1.8,1
				c-2.2,1.4-4.6,1.3-6.8,0.7c-1.8-0.5-3.3-1.7-4.4-3.4c-1.4-2.2-2.2-4.7-2-7.3c0.1-1.5,0.6-2.9,1.3-4.2c0.8-1.6,2-2.9,3.5-3.8
				c1.8-1,3.7-1.7,5.9-1C297.1,405.1,298.4,405.8,299.7,406.9z M294.9,420.5c0.5,0.1,0.8-0.2,1.2-0.3c2.2-0.7,3.3-2.2,3.8-4.4
				c0.2-0.8,0-1.5,0-2.3c0-1.4-0.8-2.3-1.6-3.2c-1.2-1.3-2.6-1.7-4.3-1.3c-2.2,0.5-3.9,2.1-4.2,4.3c-0.2,1.6-0.1,3,0.7,4.4
				C291.5,419.5,293,420.2,294.9,420.5z"/>
			<path class="st5" d="M337.2,424.3c-5.9,0.5-10.4-4.5-10.4-9.9c-0.1-5.9,4.5-10.3,10-10.3c6.5,0,10.2,4.3,10.4,10
				C347.4,419.3,343.3,424.6,337.2,424.3z M342.5,414.2c-0.2-3.9-2.9-5.8-5.7-5.8c-3,0-5.5,2.7-5.4,5.9c0.1,3.3,2.6,5.8,5.5,5.8
				C339.9,420.1,342.7,417.5,342.5,414.2z"/>
			<path class="st5" d="M225.5,425.2c-5.4,0.5-10.4-4.6-10.2-10.3c0.1-5.5,4.7-10,10.1-10c5.6,0,10.2,4.3,10.3,10.3
				C235.8,420.3,231.1,425.7,225.5,425.2z M230.9,415.1c0-3.7-2.8-5.8-5.5-5.8c-3.5,0.1-5.4,2.7-5.6,5.9c-0.1,3.1,2.8,6,5.7,5.8
				C228.2,420.8,231.1,418.5,230.9,415.1z"/>
			<path class="st5" d="M172.4,407.9c1-0.8,1.8-1.7,3-2.1c1.5-0.5,3-0.8,4.6-0.3c1.3,0.4,2.5,0.6,3.5,1.5c0.9,0.8,1.6,1.7,2.1,2.8
				c0.9,2.3,1,4.6,1,7c0,2.4,0,4.9,0.1,7.3c0,0.9-0.3,1.2-1.1,1.1c-0.9-0.1-1.8,0-2.7,0c-0.7,0.1-0.9-0.2-0.9-0.9
				c0-3.3,0-6.7-0.1-10c0-1.1-0.2-2.1-0.9-3c-0.8-1-1.7-1.4-3-1.5c-2.2-0.2-3.8,0.6-4.9,2.5c-0.5,0.9-0.5,1.8-0.5,2.7c0,3,0,6,0.1,9
				c0,1.1-0.2,1.3-1.3,1.3c-0.9,0-1.8,0-2.6,0c-0.9,0.1-1.1-0.2-1.1-1.1c0-5.2-0.1-10.3-0.1-15.5c0-0.7,0-1.4,0-2
				c0-0.6,0.2-0.7,0.7-0.7c1,0,2.1,0.1,3.1,0c0.9-0.1,1.3,0.2,1.2,1.2C172.3,407.4,172.3,407.6,172.4,407.9z"/>
			<path class="st5" d="M353.6,406.6c1.3-1.2,2.6-2,4.2-2.5c1.1-0.3,2.1-0.4,3.1-0.2c1.9,0.4,3.7,1,4.9,2.6c0.5,0.7,1,1.4,1.3,2.3
				c0.8,2.3,0.9,4.6,0.9,7c-0.1,2.4,0,4.7,0.1,7.1c0,0.7-0.2,1-0.9,0.9c-0.9,0-1.9,0-2.8,0c-1,0.1-1.2-0.4-1.2-1.3
				c0-3.5-0.1-7-0.1-10.5c0-1.7-1.7-3.6-3.7-3.6c-3.3-0.1-4.1,1-5.5,3.6c-0.3,0.5-0.2,1.3-0.2,1.9c0,3,0,5.9,0.1,8.9
				c0,1-0.3,1.2-1.2,1.2c-0.8-0.1-1.6-0.1-2.4,0c-0.8,0.1-1.1-0.2-1.1-1.1c0-3.8,0-7.6-0.1-11.4c0-2,0-4-0.1-5.9
				c0-0.7,0.2-1,0.9-0.9c0.9,0.1,1.8,0.1,2.7,0c0.9-0.1,1.2,0.2,1.1,1.1C353.5,406,353.6,406.2,353.6,406.6z"/>
			<path class="st5" d="M205.4,417.4c0-2-0.1-4.1,0-6.1c0-0.9-0.3-1.1-1.1-1c-0.6,0.1-1.2,0-1.8,0c-0.5,0-0.7-0.2-0.7-0.7
				c0-1.1,0-2.1,0-3.2c0-0.4,0.2-0.6,0.6-0.6c0.7,0,1.5,0,2.2,0c0.6,0,0.8-0.2,0.7-0.7c0-0.5,0-1,0-1.5c-0.2-3.3,1.3-5.8,3.8-7.7
				c0.8-0.7,1.8-1.3,3-1.2c0.5,0,0.8-0.3,1.2-0.4c2.3-0.1,4.5,0.4,6.4,1.8c0.8,0.6,0.7,1,0,1.6c-0.6,0.4-1,1-1.5,1.5
				c-0.5,0.5-0.9,0.7-1.5,0.3c-2.9-1.9-5.3-0.3-6.4,2.2c-0.5,1.1-0.2,2.5-0.1,3.8c0,0.4,0.4,0.3,0.7,0.3c1.1,0,2.2,0,3.3,0
				c0.5,0,0.7,0.1,0.7,0.7c0,1,0,2,0,3c0,0.6-0.2,0.8-0.8,0.8c-1,0-2,0.1-3,0c-0.8-0.1-1,0.3-0.9,1c0.1,4.2,0.1,8.3,0.1,12.5
				c0,1.3,0,1.3-1.4,1.3c-0.8,0-1.6,0-2.3,0c-0.8,0-1.1-0.3-1.1-1.1C205.5,421.8,205.4,419.6,205.4,417.4z"/>
			<path class="st5" d="M122.9,414.3c0,3.5,0,6.9,0.1,10.4c0,0.8-0.2,1.1-1,1c-0.9-0.1-1.8,0-2.6,0c-0.8,0-1.2-0.3-1.2-1.2
				c0-6.8-0.1-13.7-0.1-20.5c0-1-0.3-1.2-1.3-1.2c-2.2,0.1-4.4,0-6.6,0.1c-0.6,0-0.8-0.1-0.8-0.8c0-1,0-1.9,0-2.9
				c0-0.6,0.1-0.8,0.7-0.8c6.8,0,13.7-0.1,20.5-0.2c0.6,0,0.8,0.2,0.8,0.8c0,1,0,1.9,0,2.9c0,0.6-0.2,0.8-0.8,0.8
				c-2.3,0-4.5,0.1-6.8,0c-0.8,0-1,0.2-1,1C122.9,407.3,122.9,410.8,122.9,414.3z"/>
			<path class="st5" d="M190.9,419.9c0.3,0,0.7,0,1,0c0.8-0.1,1.4,0.1,1.9,0.7c0.8,0.9,1.4,0.8,2.1-0.1c0.6-0.7,0.5-1.6-0.3-2.1
				c-1.4-0.8-2.9-1.6-4.2-2.5c-1.1-0.8-2-1.7-2.5-3.1c-0.5-1.3-0.4-2.6,0-3.9c0.3-0.9,0.9-1.6,1.7-2.2c1.4-1.2,3-1.9,4.8-1.6
				c1.7,0.2,3.2,0.8,4.4,2.3c0.3,0.4,0.4,0.7-0.2,1c-1,0.5-2,1.2-3,1.8c-0.4,0.2-0.5,0-0.8-0.2c-0.6-0.5-1.3-0.4-2-0.1
				c-0.6,0.3-0.4,0.8-0.4,1.3c0,0.5,0.4,0.8,0.8,1c1.5,0.9,3,1.8,4.5,2.7c2.4,1.5,3.4,5.4,1.7,7.7c-1.2,1.7-2.6,2.6-4.7,2.8
				c-2.2,0.2-4.2-0.3-5.8-2.1c-0.7-0.8-1-1.8-1.3-2.8c-0.1-0.4,0.1-0.6,0.5-0.6C189.6,420,190.2,419.9,190.9,419.9z"/>
			<path class="st5" d="M310,416.6c0-2.1-0.1-4.3,0-6.4c0-0.7-0.2-1-1-1c-2.2,0.1-2.2,0-2.2-2.1c0-2,0-2,2-2c0.9,0,1.2-0.2,1.2-1.2
				c-0.1-2.3,0-4.6-0.1-6.9c0-0.7,0.2-0.9,0.9-0.9c1,0,2,0.1,2.9,0c0.8-0.1,0.9,0.3,0.9,0.9c0,2.3,0.1,4.7,0,7c0,0.8,0.2,1,1,1
				c2.4,0,2.4,0,2.4,2.3c0,1.8,0,1.8-1.8,1.8c-1.2,0-1.6,0.1-1.5,1.6c0.1,4.1,0.1,8.2,0.1,12.4c0,0.7-0.2,1-0.9,0.9c-1,0-2,0-3,0
				c-0.6,0-0.8-0.2-0.8-0.8C310.1,421,310,418.8,310,416.6z"/>
			<path class="st5" d="M136.5,408.2c1.8-1.8,3.9-2.8,6.4-2.7c1.1,0.1,2.2,0.6,3.3,1c0.3,0.1,0.4,0.4,0.3,0.6
				c-0.6,1.1-1.2,2.2-1.9,3.3c-0.2,0.4-0.5,0.5-0.9,0.2c-1.5-0.8-3.1-0.7-4.5-0.1c-1,0.4-1.8,1.5-2.3,2.6c-0.5,1.1-0.5,2.3-0.5,3.5
				c0,2.6,0,5.1,0.1,7.7c0,0.9-0.3,1.3-1.2,1.3c-0.8,0-1.6-0.1-2.3,0c-0.9,0.1-1.3-0.3-1.2-1.2c0-3.1,0-6.2-0.1-9.3
				c0-2.6,0-5.3-0.1-7.9c0-0.6,0.1-0.9,0.8-0.8c1,0,1.9,0,2.9,0c0.9-0.1,1.2,0.2,1.1,1.1C136.3,407.7,136.2,408,136.5,408.2z"/>
			<path class="st5" d="M242.2,407.5c1.2-1.5,2.9-2.1,4.6-2.7c0.9-0.3,1.9-0.2,2.8,0c0.7,0.2,1.3,0.5,2,0.7c0.6,0.2,0.7,0.5,0.5,0.9
				c-0.5,1.1-1.1,2.2-1.8,3.2c-0.2,0.3-0.3,0.3-0.6,0.1c-2.5-1.1-5.6-0.7-6.9,2.6c-0.4,1.1-0.7,2.2-0.7,3.4c0,2.7,0,5.3,0.1,8
				c0,0.7-0.2,1-0.9,0.9c-0.8-0.1-1.6-0.1-2.4,0c-0.9,0.1-1.2-0.2-1.2-1.1c0-4.8-0.1-9.6-0.1-14.4c0-1,0-2,0-3
				c0-0.5,0.2-0.8,0.7-0.7c0.9,0,1.9,0,2.8,0c0.7,0,1.1,0.1,1,0.9c0,0.3,0,0.6,0,0.9C242,407.4,242.1,407.5,242.2,407.5z"/>
			<path class="st5" d="M320.1,414.4c0-2.9,0-5.8-0.1-8.7c0-0.6,0.1-0.9,0.8-0.8c1,0,2.1,0,3.1,0c0.6,0,0.8,0.1,0.8,0.7
				c0,5.8,0.1,11.7,0.1,17.5c0,0.5-0.1,0.8-0.7,0.7c-1.1,0-2.1,0-3.2,0c-0.7,0-0.8-0.3-0.8-0.8C320.2,420.1,320.1,417.3,320.1,414.4
				z"/>
			<path class="st5" d="M322.4,395.7c1.8-0.2,3,1.2,2.9,2.6c-0.1,1.8-0.9,2.8-2.6,2.9c-2.3,0.1-3-1.1-3.2-2.7
				C319.3,396.8,320.5,395.8,322.4,395.7z"/>
			<path class="st5" d="M601,413.4c0,0.3,0.1,0.8,0.3,1.3c0.7,1.8,2.4,2.6,2.9,2.8c1.9,0.8,3.6,0.3,4.2,0.1c1.1-0.3,1.9-0.9,2.4-1.3
				c1.1,1,2.1,2.1,3.2,3.1c-0.5,0.5-3.4,3.3-7.8,3.1c-0.8,0-3.9-0.3-6.5-2.8c-3.3-3.2-3.1-7.4-3.1-8.1c0-0.5,0.4-5.5,4.8-8.1
				c0.6-0.4,3.4-2,6.9-1.3c2.9,0.6,4.6,2.3,5.1,2.8c3.1,3.2,3,7.3,3,8.1C611.3,413.2,606.1,413.3,601,413.4z M601.6,409.4
				c3.1,0,6.3-0.1,9.4-0.1c-0.1-0.4-0.9-2-2.8-2.8c-2.6-1-4.8,0.6-4.9,0.7C602.3,408,601.8,409,601.6,409.4z"/>
			<path class="st5" d="M565.5,413.6c0,0.3,0.1,0.8,0.3,1.3c0.7,1.8,2.4,2.6,2.9,2.8c1.9,0.8,3.6,0.3,4.2,0.1
				c1.1-0.3,1.9-0.9,2.4-1.3c1.1,1,2.1,2.1,3.2,3.1c-0.5,0.5-3.4,3.3-7.8,3.1c-0.8,0-3.9-0.3-6.5-2.8c-3.3-3.2-3.1-7.4-3.1-8.1
				c0-0.5,0.4-5.5,4.8-8.1c0.6-0.4,3.4-2,6.9-1.3c2.9,0.6,4.6,2.3,5.1,2.8c3.1,3.2,3,7.3,3,8.1C575.7,413.5,570.6,413.6,565.5,413.6
				z M566.1,409.7c3.1,0,6.3-0.1,9.4-0.1c-0.1-0.4-0.9-2-2.8-2.8c-2.6-1-4.8,0.6-4.9,0.7C566.8,408.3,566.3,409.2,566.1,409.7z"/>
			<path class="st5" d="M472.9,414.4c0,0.3,0.1,0.8,0.3,1.3c0.7,1.8,2.4,2.6,2.9,2.8c1.9,0.8,3.6,0.3,4.2,0.1
				c1.1-0.3,1.9-0.9,2.4-1.3c1.1,1,2.1,2.1,3.2,3.1c-0.5,0.5-3.4,3.3-7.8,3.1c-0.8,0-3.9-0.3-6.5-2.8c-3.3-3.2-3.1-7.4-3.1-8.1
				c0-0.5,0.4-5.5,4.8-8.1c0.6-0.4,3.4-2,6.9-1.3c2.9,0.6,4.6,2.3,5.1,2.8c3.1,3.2,3,7.3,3,8.1C483.1,414.2,478,414.3,472.9,414.4z
				 M473.5,410.4c3.1,0,6.3-0.1,9.4-0.1c-0.1-0.4-0.9-2-2.8-2.8c-2.6-1-4.8,0.6-4.9,0.7C474.2,409,473.7,410,473.5,410.4z"/>
			<path class="st5" d="M494.7,405.5c1.4-1.9,3.5-2.7,5.6-2.7c2.2,0,4.3,0.5,6.1,2.3c1.6,1.7,2,3.6,2.3,5.7
				c0.5,3.6,0.1,7.2,0.4,10.8c0,0.8-0.2,1-1,1c-1,0-2,0-3,0c-0.6,0-0.8-0.2-0.8-0.8c0-3.4,0-6.9-0.1-10.3c-0.1-2.4-1.6-4.3-4.3-4.3
				c-2.1,0-3.4,1-4.4,2.4c-0.5,0.8-0.8,1.9-0.8,2.9c0.1,3,0,6.1,0.1,9.1c0,0.8-0.2,1-1,1c-1-0.1-2.1,0-3.1,0c-0.5,0-0.7-0.2-0.7-0.7
				c0-5.9-0.1-11.7-0.1-17.6c0-0.7,0.3-0.9,0.9-0.9c1,0,2,0,3,0c0.7,0,0.9,0.2,0.9,0.9C494.5,404.7,494.5,405.1,494.7,405.5z"/>
			<path class="st5" d="M513.5,417.4c0.4,0,0.8,0,1.3,0c0.6,0,1,0,1.4,0.6c0.4,0.6,1.5,0.7,2.2,0.4c0.6-0.3,0.6-0.9,0.5-1.4
				c-0.2-0.8-1-1-1.6-1.4c-1.4-0.8-2.7-1.5-3.9-2.4c-1-0.8-1.6-1.8-2-3.2c-0.6-2,0.1-3.5,1.2-5c0.8-1.1,2-1.6,3.2-1.9
				c2.3-0.7,4.4,0,6.2,1.5c1,0.8,0.9,1.2-0.2,1.7c-0.4,0.2-0.7,0.6-1.1,0.7c-0.8,0.3-1.4,1.2-2.4,0.4c-0.6-0.4-1.5-0.3-2,0.4
				c-0.4,0.5-0.5,1.1,0.2,1.6c1.7,1.2,3.5,2.1,5.2,3.3c2,1.4,3.1,4.4,1.6,7.2c-0.9,1.6-2.1,2.6-4,3.1c-3,0.7-5.2-0.3-7.1-2.5
				c-0.5-0.6-0.5-1.3-0.8-2c-0.2-0.6,0-1,0.7-0.9C512.4,417.4,513,417.4,513.5,417.4z"/>
			<path class="st5" d="M587.5,405c0-0.8,0-1.6,0-2.4l-4.7,0c0.1,6.5,0.1,13.1,0.2,19.6l4.7,0c0-3.1,0-6.1-0.1-9.2
				c0-1.2,0.2-2.4,0.6-3.5c0.6-1.4,1.6-2.6,3.3-2.9c1.4-0.3,2.9-0.3,4.1,0.8c0.8-1.4,1.5-2.7,2.4-4.2
				C594.1,401.5,590.7,401.9,587.5,405z"/>
			<polygon class="st5" points="554.1,394.8 554.2,406 542.7,406.1 542.6,394.9 537.8,395 538,422.6 542.8,422.5 542.7,410.7 
				554.2,410.6 554.3,422.4 559.2,422.4 559,394.8 			"/>
			<polygon class="st5" points="397.2,396.1 397.3,407.3 385.8,407.3 385.7,396.2 380.8,396.2 381.1,423.8 385.9,423.7 385.8,411.9 
				397.3,411.9 397.4,423.6 402.2,423.6 402,396 			"/>
			<path class="st5" d="M418.6,404.1c0,0.6,0,1.2,0,1.8c-1.2-1-2.3-1.8-3.7-2.1c-2.2-0.5-4.2,0-4.8,0.2c-2.6,0.9-4,2.8-4.5,3.5
				c-2.1,3.2-1.7,6.6-1.6,7.5c0.2,1.2,0.8,5.6,4.8,7.7c2.5,1.3,5.6,1.2,8,0c0.9-0.5,1.6-1,2-1.4l0,2l4.9,0
				c-0.1-6.4-0.1-12.9-0.2-19.3C421.9,404.1,420.3,404.1,418.6,404.1z M413.8,419.8c-3.1,0-5.7-2.7-5.7-6.1s2.5-6.1,5.6-6.2
				c3.1,0,5.7,2.7,5.7,6.1C419.4,417,416.9,419.8,413.8,419.8z"/>
			<path class="st5" d="M443.8,407.3c-0.5-0.7-1.9-2.6-4.6-3.5c-0.6-0.2-2.6-0.7-4.8-0.2c-1.4,0.3-2.5,1.2-3.7,2.1
				c0-0.6,0-1.2,0-1.8c-1.7,0-3.3,0-5,0c0.1,6.4,0.1,12.9,0.2,19.3l0.1,7.3l5,0c0-3.1,0-6.2-0.1-9.4c0.2,0.2,0.4,0.5,0.8,0.7
				c0,0,0.5,0.4,1.2,0.7c2.4,1.1,5.5,1.2,8-0.2c4-2.1,4.5-6.6,4.7-7.7C445.6,413.9,445.9,410.5,443.8,407.3z M435.8,419.6
				c-3.1,0-5.7-2.7-5.7-6.1c0-3.4,2.5-6.1,5.6-6.2s5.7,2.7,5.7,6.1C441.5,416.8,439,419.6,435.8,419.6z"/>
			<path class="st5" d="M465.3,407.1c-0.5-0.7-1.9-2.6-4.6-3.5c-0.6-0.2-2.6-0.7-4.8-0.2c-1.4,0.3-2.5,1.2-3.7,2.1
				c0-0.6,0-1.2,0-1.8c-1.7,0-3.3,0-5,0c0.1,6.4,0.1,12.9,0.2,19.3l0.1,7.3l5,0c0-3.1,0-6.2-0.1-9.4c0.2,0.2,0.4,0.5,0.8,0.7
				c0,0,0.5,0.4,1.2,0.7c2.4,1.1,5.5,1.2,8-0.2c4-2.1,4.5-6.6,4.7-7.7C467.1,413.7,467.4,410.3,465.3,407.1z M457.3,419.5
				c-3.1,0-5.7-2.7-5.7-6.1c0-3.4,2.5-6.1,5.6-6.2s5.7,2.7,5.7,6.1C463,416.7,460.4,419.4,457.3,419.5z"/>
			<polygon class="st4" points="238.5,428.5 237.4,427.9 237.4,429.1 			"/>
		</g>
	</g>
	<path class="st5" d="M454.2,356.5c0.1,1.2,0.3,3,1.1,5c2.5,6.5,8.4,9.1,9.3,9.6c0.9,0.4,6,2.6,12.3,0.8c1.5-0.4,5.1-1.5,8-4.9
		c1.3-1.6,2.1-3.1,2.6-4.2c4.6,1,9.2,2,13.8,3c-0.8,2.4-3.6,10.4-11.9,15.9c-8.4,5.6-16.9,5.2-19.3,5c-2-0.1-11.9-0.9-19.9-9
		c-10.2-10.4-9.5-24.2-9.4-26.4c0.1-1.6,1.4-17.7,14.5-26.3c1.8-1.2,10.3-6.4,21.2-4.1c8.5,1.8,13.7,7,15.7,9.2
		c9.6,10.2,9.2,23.3,9.1,26.3C485.6,356.5,469.9,356.5,454.2,356.5z M456.1,345c9.6,0,19.2,0,28.8-0.1c-0.5-1.1-2.8-6.6-8.6-9.1
		c-7.7-3.2-14.5,1.9-15,2.2C458.2,340.5,456.7,343.5,456.1,345z"/>
	<path class="st5" d="M298.5,365.3c5-14.2,10.1-28.4,15.1-42.7c6.1,0,12.3,0,18.4,0c-8.4,21.4-16.8,42.8-25.1,64.2
		c-5.7,0-11.3,0-17,0c-8.7-21.4-17.5-42.8-26.2-64.2c6.1,0,12.2,0,18.3,0C287.6,336.9,293,351.1,298.5,365.3z"/>
	<path class="st5" d="M585.1,354.5c0-5.7,0-11.4,0-17.1c-3.7,0-7.5,0-11.2,0c0-5.3,0-10.5,0-15.8c3.7,0,7.5,0,11.2,0
		c0-6.4,0-12.8,0-19.2c5.8,0,11.5,0,17.3,0c0,6.4,0,12.8,0,19.2c4.3,0,8.6,0,12.9,0c0,5.3,0,10.5,0,15.8c-4.3,0-8.7,0-13,0
		c0,8.7,0.1,17.4,0.1,26.1c-0.1,0.9-0.4,4.1,1.7,6c1.4,1.4,3.4,1.5,6.3,1.7c2.1,0.1,3.8,0,4.9-0.2c0,4.7,0,9.4,0,14
		c-1.6,0.5-11.6,3.6-19.8-0.3c-1.5-0.7-4.8-2.3-7.3-5.8c-0.6-0.8-1.6-2.2-2.2-4.2c-0.5-1.5-0.7-3.5-0.9-5.1c0-0.3-0.1-0.6-0.1-0.7
		C585.1,364.2,585.1,359.4,585.1,354.5z"/>
	<path class="st5" d="M346.1,293.8c6.1,0,10.7,4.7,10.7,10.9c0,5.8-4.7,10.6-10.6,10.6c-6,0.1-11-4.8-10.9-10.7
		C335.2,298.6,340.1,293.8,346.1,293.8z"/>
	<rect x="337.2" y="322.7" class="st5" width="17.6" height="64.2"/>
	<polygon class="st5" points="261.7,311.4 261.7,294.4 221.7,294.4 203.6,294.4 203.6,311.4 203.6,332.6 203.6,332.6 203.6,348.7 
		203.6,348.7 203.6,369.8 203.6,386.9 221.7,386.9 261.7,386.9 261.7,369.8 221.7,369.8 221.7,348.7 258,348.7 258,332.6 
		221.7,332.6 221.7,311.4 	"/>
	<path class="st5" d="M429.5,291c-5.7,0-11.5,0-17.2,0c0,11.7,0,23.4-0.1,35.1c-2.7-2.4-5.4-4.2-8.6-5.1c-10.2-2.9-19.8-1.7-28.3,5
		c-15.3,12-16.3,38.7-2.3,52.6c8.9,8.8,28.3,13.2,39.3,0.6v6.4h17.2C429.5,353.9,429.5,322.4,429.5,291z M406,368.1
		c-4.4,3.4-9.5,3.2-10.1,3.2c-1.1,0-5.7-0.4-9.6-3.9c-3-2.6-4.8-6.4-5.3-11.1c-0.1-1.1-0.1-2.1-0.2-3.2c0-9,4.4-15.7,11.7-17.5
		c10.1-2.6,18.9,4.1,19.8,15.1C413.3,357.6,411,364.3,406,368.1z"/>
	<path class="st5" d="M568.3,343c-1.3-10-7.4-18.3-15.7-21.1c-7.1-2.4-13.9-0.1-15.1,0.3c-5.5,2-8.8,5.4-10.2,7.2v-7.1h-17.6v64.7
		h17.6c0-11.9,0-23.8,0-35.7c0-0.3,0-0.5,0-0.8c0-3.1,0.6-6,2.3-8.6c2.9-4.4,8.1-6.1,13.6-4.6c4.6,1.3,7.8,5.5,7.8,10.9
		c0,0.5,0,1,0,1.4c0,12.4,0,24.8,0,37.2c5.9,0,11.7,0,17.6,0C568.4,372.2,568.3,357.6,568.3,343z"/>
</g>
</svg>
