<?xml version="1.0" encoding="utf-8"?>
<!-- Generator: Adobe Illustrator 25.4.1, SVG Export Plug-In . SVG Version: 6.00 Build 0)  -->
<svg version="1.1" id="Layer_1" xmlns="http://www.w3.org/2000/svg" xmlns:xlink="http://www.w3.org/1999/xlink" x="0px" y="0px"
	 viewBox="0 0 126 80" style="enable-background:new 0 0 126 80;" xml:space="preserve">
<style type="text/css">
	.st0{fill:#3472A9;}
	.st1{fill:url(#SVGID_1_);}
	.st2{fill:url(#SVGID_00000150798587614800963670000001822027758821909406_);}
	.st3{fill:url(#SVGID_00000125604107238477219790000004428373021776349110_);}
	.st4{fill:#41AA54;}
	.st5{fill:#41AA54;stroke:#41AA54;stroke-width:0.2564;stroke-miterlimit:10;}
</style>
<g>
	<polygon class="st0" points="80.8,36.7 79.5,36.1 79,37.2 80.2,37.8 	"/>
	<polygon class="st0" points="109.4,46.2 110.7,46.9 111.3,45.7 110,45 	"/>
	<polygon class="st0" points="107.6,46.7 108.8,47.4 109.4,46.3 108.2,45.6 	"/>
	<path class="st0" d="M119.9,39.7c-0.5,0-0.8,0.3-1.1,0.9c-0.3,0.5-0.4,1.1-0.4,1.8c0,1.2,0.7,1.9,2.2,1.9c-0.6,1-1.2,1.7-1.6,2.1
		c-0.8,0.8-1.6,1.2-2.6,1.2c-0.2,0-0.8-0.1-1.8-0.4l-0.1,0.3c0.9,0.4,1.4,0.6,1.6,0.6c0.6,0.2,1.1,0.3,1.6,0.3
		c0.9,0,1.8-0.6,2.5-1.7c0.7-1,1-2,1-3v-1C121.1,40.7,120.7,39.7,119.9,39.7z M119.1,41.8c0-0.4,0.2-0.6,0.5-0.6
		c0.4,0,0.7,0.5,0.9,1.5C119.6,42.7,119.1,42.4,119.1,41.8z"/>
	<path class="st0" d="M123.5,33c-0.3,0.6-0.6,1.2-0.8,1.7c0.3,4,0.5,6.8,0.4,8.6c0,0.2,0,0.6-0.1,1.1l0.1,0.1c0.5-1,0.8-1.8,0.8-2.6
		C124,40.1,123.8,37.2,123.5,33z"/>
	<path class="st0" d="M81.5,39.7c-0.1-0.3-0.3-0.8-0.7-1.3l-0.6,1.5c0.4,0.5,0.6,0.9,0.7,1.1c0.1,0.4,0.2,0.9,0.2,1.7h-5.8h-8.9
		h-0.2H64v-0.9c0-1.1-0.1-2-0.4-2.6c-0.1-0.2-0.3-0.6-0.6-1l-0.6,1.5c0.6,0.6,0.9,1.5,0.9,2.8v0.2h-4.8H42.5h-0.1h-0.1
		c-0.9,0-1.6-0.2-2.1-0.5c-0.6-0.4-0.9-1-0.9-1.7c0-0.3,0.1-0.7,0.2-1.2c0.1-0.3,0.2-0.6,0.3-0.8l-0.2-0.2c-0.3,0.6-0.5,1-0.5,1.2
		c-0.2,0.6-0.3,1.2-0.3,1.7c0,2,1.1,3,3.4,3h0.5v0h16.2v0h4.8H64h2.4v0h8.9v0h6.4V42C81.7,40.9,81.7,40.2,81.5,39.7z"/>
	<path class="st0" d="M114,39.7c-0.1-0.3-0.3-0.8-0.7-1.3l-0.6,1.5c0.4,0.5,0.6,0.9,0.7,1.1c0.1,0.4,0.2,0.9,0.2,1.7
		c-8.2,0-16.4,0-24.7,0c0-1.5-0.1-2.7-0.4-3.6c-0.4-1.1-1-2-1.9-2.5l-0.1,1.8c1.3,0.5,2,1.9,2,4.3h-0.1h-2.9c-0.4,0-0.7-0.2-0.8-0.7
		h-0.2c-0.1,0.4-0.1,0.8-0.1,1.3c0,0.3,0.1,0.5,0.3,0.7c0.2,0.2,0.5,0.3,0.8,0.3h2.9H89c8.4,0,16.8,0,25.2,0V42
		C114.2,40.9,114.1,40.2,114,39.7z"/>
	<polygon class="st0" points="59.5,37.2 60.7,37.9 61.3,36.7 60.1,36.1 	"/>
	<polygon class="st0" points="57.6,37.8 58.8,38.5 59.4,37.3 58.2,36.6 	"/>
	
		<radialGradient id="SVGID_1_" cx="-63.7487" cy="70.4268" r="45.8952" fx="-86.6966" fy="108.6333" gradientTransform="matrix(0.9561 -1.069937e-03 1.129653e-03 1.0095 66.1915 -17.7699)" gradientUnits="userSpaceOnUse">
		<stop  offset="0.4045" style="stop-color:#41AA54"/>
		<stop  offset="0.6812" style="stop-color:#41A956"/>
		<stop  offset="0.7809" style="stop-color:#3FA35D"/>
		<stop  offset="0.8519" style="stop-color:#3D9B68"/>
		<stop  offset="0.9094" style="stop-color:#3A8E79"/>
		<stop  offset="0.958" style="stop-color:#367E8F"/>
		<stop  offset="1" style="stop-color:#316AA9"/>
	</radialGradient>
	<path class="st1" d="M16.1,22.2c0.9-1.3,1.9-2.6,3.1-3.7c6.8-6.3,14.8-8.1,23.4-4.7c3.7,1.5,6.6,3.6,8.9,6.2
		c3.9,4.7,4.6,10.1,4.9,12.2c0.1,0.7,0.1,1.2,0.2,1.6c1.2,0,2.4,0,3.6,0c0-0.4-0.1-1-0.1-1.7c-0.2-1.9-0.6-5.6-2.5-9.5
		c-1.1-2.2-2.5-4.2-4.2-6c-6.1-6.4-13.7-9.1-22.5-7.8c-7.3,1-13,4.8-17.2,10.8c-0.2,0.3-0.4,0.6-0.6,0.9c-3.5,5.7-4.6,11.8-3.4,18.3
		c1.2,6.1,4.2,11.1,9.1,15c1.7,1.4,3.5,2.5,5.4,3.4c1.7,0.8,5.3,2.4,10,2.3c0.1,0,0.2,0,0.3,0c0-1.2,0-2.4,0-3.7c-0.1,0-0.2,0-0.3,0
		c-1.5-0.1-5.3-0.2-9.5-2.4c-2.5-1.3-4.7-3.1-6.7-5.5c-4.2-5-5.8-10.8-4.8-17.3C13.4,27.6,14.5,24.8,16.1,22.2z"/>
	
		<radialGradient id="SVGID_00000139999549242804703020000011663994679352416647_" cx="-63.7487" cy="70.4268" r="45.8952" fx="-86.6966" fy="108.6333" gradientTransform="matrix(0.9561 -1.069937e-03 1.129653e-03 1.0095 66.1915 -17.7699)" gradientUnits="userSpaceOnUse">
		<stop  offset="0.4045" style="stop-color:#41AA54"/>
		<stop  offset="0.6812" style="stop-color:#41A956"/>
		<stop  offset="0.7809" style="stop-color:#3FA35D"/>
		<stop  offset="0.8519" style="stop-color:#3D9B68"/>
		<stop  offset="0.9094" style="stop-color:#3A8E79"/>
		<stop  offset="0.958" style="stop-color:#367E8F"/>
		<stop  offset="1" style="stop-color:#316AA9"/>
	</radialGradient>
	<path style="fill:url(#SVGID_00000139999549242804703020000011663994679352416647_);" d="M21.9,27.8c3.2-6.4,10.4-9.4,17-7.2
		c1.6,0.5,3.1,1.3,4.3,2.3c4.5,3.5,5.2,9.1,5.4,10.6c0,0.2,0,0.3,0,0.4c1.2,0,2.4,0,3.7,0c0-0.1,0-0.3,0-0.4c0,0-0.1-2-0.5-3.5
		c-1.8-7.7-8.5-13.5-17-13.6c-3.5-0.1-6.9,0.9-9.8,2.8c-2.5,1.6-4.5,3.7-5.9,6.4c-1.2,2.1-1.9,4.3-2.1,6.7
		c-0.5,6.2,1.5,11.5,6.3,15.5c1,0.9,2.1,1.6,3.3,2.2c1.1,0.5,3.8,1.9,7.3,1.9c0.2,0,0.3,0,0.4,0c0-1.2,0-2.4,0-3.6
		c-0.1,0-0.1,0-0.2,0c-1-0.1-3.1-0.2-5.4-1.3c-1.3-0.6-2.6-1.5-3.7-2.5c-3-2.8-4.4-6.3-4.5-10.3c0-2.1,0.4-4,1.3-5.9
		C21.8,28,21.8,27.9,21.9,27.8z"/>
	
		<radialGradient id="SVGID_00000034793069096576270950000004500001276910754179_" cx="-63.7487" cy="70.4268" r="45.8952" fx="-86.6966" fy="108.6333" gradientTransform="matrix(0.9561 -1.069937e-03 1.129653e-03 1.0095 66.1915 -17.7699)" gradientUnits="userSpaceOnUse">
		<stop  offset="0.4045" style="stop-color:#41AA54"/>
		<stop  offset="0.6812" style="stop-color:#41A956"/>
		<stop  offset="0.7809" style="stop-color:#3FA35D"/>
		<stop  offset="0.8519" style="stop-color:#3D9B68"/>
		<stop  offset="0.9094" style="stop-color:#3A8E79"/>
		<stop  offset="0.958" style="stop-color:#367E8F"/>
		<stop  offset="1" style="stop-color:#316AA9"/>
	</radialGradient>
	<path style="fill:url(#SVGID_00000034793069096576270950000004500001276910754179_);" d="M64,18.5c-4.1-7.7-10-11.7-11.7-12.7
		c-4.6-2.9-10.1-4.6-16.2-5c-5.9-0.4-11.6,1-16.9,3.7c-4.3,2.3-8,5.3-11,9.3C6.4,16,5,18.5,3.9,21.1c-2.4,5.6-3.1,11.4-2.3,17.4
		c1,7,3.9,13.2,8.8,18.3c3,3.1,6.3,5.6,10,7.3c2.4,1.1,7.4,3.5,13.8,3.2c0.1,0,0.1,0,0.2,0c0-1.2,0-2.4,0-3.7c-0.1,0-0.2,0-0.3,0
		c0,0-2.2,0-4-0.3c-7.5-1.2-13.7-4.7-18.4-10.6c-6.1-7.7-8-16.3-5.7-25.9c0.9-3.7,2.6-7.1,4.7-10.2c0.1-0.1,0.1-0.1,0.2-0.2
		c2.2-3,4.9-5.5,8.1-7.5c4.3-2.7,9-4.1,14-4.4C38.2,4.1,43.3,5.1,48,7.6c4.3,2.3,7.7,5.1,10.3,8.6c0,0,4.4,5.8,5.4,12.6
		c0.3,2,0.5,4.6,0.5,4.6c0,0.2,0,0.3,0,0.4c1.2,0,2.4,0,3.6,0c0-0.1,0-0.2,0-0.3C67.7,25.9,64.8,20.2,64,18.5z"/>
	<path class="st4" d="M91,61.2c0,0.3,0.1,0.6,0.2,1c0.5,1.4,1.7,1.9,1.9,2c0.2,0.1,1.3,0.5,2.6,0.2c0.3-0.1,1.1-0.3,1.7-1
		c0.3-0.3,0.4-0.6,0.5-0.9c1,0.2,1.9,0.4,2.9,0.6c-0.2,0.5-0.7,2.2-2.5,3.3c-1.7,1.2-3.5,1.1-4,1c-0.4,0-2.5-0.2-4.2-1.9
		c-2.1-2.2-2-5.1-2-5.5c0-0.3,0.3-3.7,3-5.5c0.4-0.2,2.1-1.3,4.4-0.9c1.8,0.4,2.9,1.5,3.3,1.9c2,2.1,1.9,4.9,1.9,5.5
		C97.5,61.2,94.2,61.2,91,61.2z M91.4,58.8c2,0,4,0,6,0c-0.1-0.2-0.6-1.4-1.8-1.9c-1.6-0.7-3,0.4-3.1,0.5
		C91.8,57.9,91.5,58.5,91.4,58.8z"/>
	<path class="st4" d="M58.5,63c1.1-3,2.1-5.9,3.2-8.9c1.3,0,2.6,0,3.8,0c-1.7,4.5-3.5,8.9-5.2,13.4c-1.2,0-2.4,0-3.5,0
		c-1.8-4.5-3.6-8.9-5.5-13.4c1.3,0,2.5,0,3.8,0C56.2,57.1,57.3,60.1,58.5,63z"/>
	<path class="st4" d="M118.3,60.8c0-1.2,0-2.4,0-3.6c-0.8,0-1.6,0-2.3,0c0-1.1,0-2.2,0-3.3c0.8,0,1.6,0,2.3,0c0-1.3,0-2.7,0-4
		c1.2,0,2.4,0,3.6,0c0,1.3,0,2.7,0,4c0.9,0,1.8,0,2.7,0c0,1.1,0,2.2,0,3.3c-0.9,0-1.8,0-2.7,0c0,1.8,0,3.6,0,5.5
		c0,0.2-0.1,0.9,0.4,1.3c0.3,0.3,0.7,0.3,1.3,0.4c0.4,0,0.8,0,1,0c0,1,0,2,0,2.9c-0.3,0.1-2.4,0.8-4.1-0.1c-0.3-0.1-1-0.5-1.5-1.2
		c-0.1-0.2-0.3-0.5-0.5-0.9c-0.1-0.3-0.1-0.7-0.2-1.1c0-0.1,0-0.1,0-0.2C118.3,62.8,118.3,61.8,118.3,60.8z"/>
	<path class="st4" d="M68.4,48.1c1.3,0,2.2,1,2.2,2.3c0,1.2-1,2.2-2.2,2.2c-1.2,0-2.3-1-2.3-2.2C66.1,49.1,67.2,48.1,68.4,48.1z"/>
	<rect x="66.5" y="54.2" class="st4" width="3.7" height="13.4"/>
	<polygon class="st4" points="50.8,51.8 50.8,48.2 42.4,48.2 38.6,48.2 38.6,51.8 38.6,56.2 38.6,56.2 38.6,59.6 38.6,59.6 38.6,64 
		38.6,67.6 42.4,67.6 50.8,67.6 50.8,64 42.4,64 42.4,59.6 50,59.6 50,56.2 42.4,56.2 42.4,51.8 	"/>
	<path class="st4" d="M85.8,47.5c-1.2,0-2.4,0-3.6,0c0,2.4,0,4.9,0,7.3c-0.6-0.5-1.1-0.9-1.8-1.1c-2.1-0.6-4.1-0.3-5.9,1
		c-3.2,2.5-3.4,8.1-0.5,11c1.9,1.8,5.9,2.8,8.2,0.1v1.3h3.6C85.8,60.7,85.8,54.1,85.8,47.5z M80.9,63.6c-0.9,0.7-2,0.7-2.1,0.7
		c-0.2,0-1.2-0.1-2-0.8c-0.6-0.5-1-1.3-1.1-2.3c0-0.2,0-0.4,0-0.7c0-1.9,0.9-3.3,2.4-3.7c2.1-0.5,3.9,0.9,4.1,3.1
		C82.4,61.4,82,62.8,80.9,63.6z"/>
	<path class="st4" d="M114.8,58.4c-0.3-2.1-1.5-3.8-3.3-4.4c-1.5-0.5-2.9,0-3.2,0.1c-1.1,0.4-1.8,1.1-2.1,1.5V54h-3.7v13.5h3.7
		c0-2.5,0-5,0-7.5c0-0.1,0-0.1,0-0.2c0-0.6,0.1-1.2,0.5-1.8c0.6-0.9,1.7-1.3,2.8-1c1,0.3,1.6,1.1,1.6,2.3c0,0.1,0,0.2,0,0.3
		c0,2.6,0,5.2,0,7.8c1.2,0,2.5,0,3.7,0C114.8,64.5,114.8,61.4,114.8,58.4z"/>
	<g>
		<g>
			<path class="st4" d="M44.3,74.7c-0.4,0-0.7,0-1.1,0c0-0.3,0-0.6,0-1c0.4,0,0.7,0,1.1,0c0-0.7,0-1.5,0-2.2c0.3,0,0.7,0,1,0
				c0,0.7,0,1.5,0,2.2c0.3,0,0.7,0,1,0c0,0.3,0,0.6,0,1c-0.3,0-0.7,0-1,0c0,0.6,0,1.2,0,1.8c0,0.1,0,0.2,0,0.2c0,0.1,0,0.2,0.1,0.3
				c0.2,0.2,0.6,0.1,0.6,0.1c0.2-0.1,0.3-0.1,0.3-0.2c0,0.3,0,0.7,0,1c-0.8,0.3-1.5,0.2-1.8-0.3c-0.1-0.1-0.2-0.3-0.2-0.6
				C44.3,76.3,44.3,75.5,44.3,74.7z"/>
			<path class="st5" d="M29,77.6c-0.3,0.2-0.5,0.3-0.8,0.4c-0.3,0.1-0.6,0.1-1,0.1c-0.4,0-0.9-0.1-1.3-0.3c-0.4-0.2-0.7-0.4-1-0.7
				c-0.3-0.3-0.5-0.6-0.7-1c-0.2-0.4-0.3-0.8-0.3-1.3c0-0.4,0.1-0.9,0.3-1.3c0.2-0.4,0.4-0.7,0.7-1c0.3-0.3,0.6-0.5,1-0.7
				c0.4-0.2,0.8-0.3,1.3-0.3c0.3,0,0.6,0,1,0.1c0.3,0.1,0.6,0.2,0.8,0.4l-0.4,0.6c-0.2-0.1-0.4-0.3-0.7-0.3
				c-0.2-0.1-0.5-0.1-0.7-0.1c-0.3,0-0.7,0.1-1,0.2s-0.6,0.3-0.8,0.5c-0.2,0.2-0.4,0.5-0.5,0.8s-0.2,0.6-0.2,1c0,0.4,0.1,0.7,0.2,1
				c0.1,0.3,0.3,0.6,0.5,0.8c0.2,0.2,0.5,0.4,0.8,0.5s0.6,0.2,1,0.2c0.3,0,0.5,0,0.7-0.1c0.2-0.1,0.4-0.2,0.6-0.3L29,77.6z"/>
			<path class="st5" d="M32.7,74.6c-0.1,0-0.2-0.1-0.3-0.1c-0.1,0-0.2,0-0.4,0c-0.2,0-0.3,0-0.5,0.1c-0.2,0.1-0.3,0.2-0.4,0.3
				c-0.1,0.1-0.2,0.3-0.3,0.4c-0.1,0.2-0.1,0.3-0.1,0.5V78H30v-4.1h0.7v0.5l0,0c0.1-0.2,0.3-0.4,0.6-0.5c0.3-0.1,0.5-0.2,0.8-0.2
				c0.2,0,0.4,0,0.5,0.1c0.1,0,0.3,0.1,0.4,0.1L32.7,74.6z"/>
			<path class="st5" d="M37.2,77.5c-0.2,0.2-0.4,0.4-0.7,0.5c-0.3,0.1-0.5,0.2-0.9,0.2c-0.3,0-0.6-0.1-0.9-0.2
				c-0.3-0.1-0.5-0.3-0.7-0.5c-0.2-0.2-0.4-0.4-0.5-0.7c-0.1-0.3-0.2-0.6-0.2-0.9c0-0.3,0.1-0.6,0.2-0.8c0.1-0.3,0.3-0.5,0.5-0.7
				c0.2-0.2,0.4-0.4,0.7-0.5c0.3-0.1,0.5-0.2,0.8-0.2c0.3,0,0.6,0.1,0.8,0.2c0.3,0.1,0.5,0.3,0.7,0.5c0.2,0.2,0.3,0.4,0.5,0.7
				c0.1,0.3,0.2,0.6,0.2,0.9c0,0,0,0,0,0s0,0,0,0v0h-3.5c0,0.2,0.1,0.4,0.1,0.5c0.1,0.2,0.2,0.3,0.3,0.4c0.1,0.1,0.3,0.2,0.4,0.3
				c0.2,0.1,0.3,0.1,0.5,0.1c0.2,0,0.4,0,0.6-0.1c0.2-0.1,0.3-0.2,0.5-0.3L37.2,77.5z M36.9,75.4L36.9,75.4c0-0.2-0.1-0.3-0.2-0.4
				c-0.1-0.1-0.2-0.2-0.3-0.3c-0.1-0.1-0.2-0.2-0.4-0.2c-0.1,0-0.3-0.1-0.4-0.1c-0.3,0-0.6,0.1-0.8,0.3c-0.2,0.2-0.4,0.4-0.5,0.7
				l0,0H36.9z"/>
			<path class="st5" d="M42.7,78h-0.8v-0.4l0,0c-0.2,0.2-0.3,0.3-0.6,0.4c-0.2,0.1-0.5,0.2-0.7,0.2c-0.3,0-0.6-0.1-0.9-0.2
				c-0.3-0.1-0.5-0.3-0.7-0.5c-0.2-0.2-0.4-0.4-0.5-0.7c-0.1-0.3-0.2-0.5-0.2-0.8c0-0.3,0.1-0.6,0.2-0.9c0.1-0.3,0.3-0.5,0.5-0.7
				c0.2-0.2,0.4-0.4,0.7-0.5c0.3-0.1,0.6-0.2,0.9-0.2c0.3,0,0.5,0.1,0.7,0.2c0.2,0.1,0.4,0.3,0.6,0.4l0,0v-0.4h0.8V78z M39.1,75.9
				c0,0.2,0,0.4,0.1,0.6c0.1,0.2,0.2,0.3,0.3,0.5s0.3,0.2,0.5,0.3c0.2,0.1,0.4,0.1,0.6,0.1c0.2,0,0.4,0,0.6-0.1
				c0.2-0.1,0.3-0.2,0.5-0.3c0.1-0.1,0.2-0.3,0.3-0.5c0.1-0.2,0.1-0.4,0.1-0.6c0-0.2,0-0.4-0.1-0.6c-0.1-0.2-0.2-0.3-0.3-0.5
				c-0.1-0.1-0.3-0.2-0.5-0.3c-0.2-0.1-0.4-0.1-0.6-0.1c-0.2,0-0.4,0-0.6,0.1c-0.2,0.1-0.3,0.2-0.5,0.3s-0.2,0.3-0.3,0.5
				C39.2,75.5,39.1,75.7,39.1,75.9z"/>
			<path class="st5" d="M46.9,72.2c0-0.1,0-0.3,0.1-0.4c0.1-0.1,0.2-0.1,0.4-0.1c0.1,0,0.3,0,0.4,0.1c0.1,0.1,0.1,0.2,0.1,0.4
				c0,0.1,0,0.3-0.1,0.4c-0.1,0.1-0.2,0.1-0.4,0.1c-0.1,0-0.3,0-0.4-0.1C46.9,72.5,46.9,72.4,46.9,72.2z M47,78v-4.1h0.8V78H47z"/>
			<path class="st5" d="M49.2,73.9l1.3,2.7h0l1.3-2.7h0.8l-2.1,4.2h0l-2.1-4.2H49.2z"/>
			<path class="st5" d="M56.7,77.5c-0.2,0.2-0.4,0.4-0.7,0.5c-0.3,0.1-0.5,0.2-0.9,0.2c-0.3,0-0.6-0.1-0.9-0.2
				c-0.3-0.1-0.5-0.3-0.7-0.5c-0.2-0.2-0.4-0.4-0.5-0.7C53,76.5,53,76.2,53,75.9c0-0.3,0.1-0.6,0.2-0.8c0.1-0.3,0.3-0.5,0.5-0.7
				c0.2-0.2,0.4-0.4,0.7-0.5c0.3-0.1,0.5-0.2,0.8-0.2c0.3,0,0.6,0.1,0.8,0.2c0.3,0.1,0.5,0.3,0.7,0.5c0.2,0.2,0.3,0.4,0.5,0.7
				c0.1,0.3,0.2,0.6,0.2,0.9c0,0,0,0,0,0c0,0,0,0,0,0v0h-3.5c0,0.2,0.1,0.4,0.1,0.5c0.1,0.2,0.2,0.3,0.3,0.4
				c0.1,0.1,0.3,0.2,0.4,0.3c0.2,0.1,0.3,0.1,0.5,0.1c0.2,0,0.4,0,0.6-0.1c0.2-0.1,0.3-0.2,0.5-0.3L56.7,77.5z M56.4,75.4L56.4,75.4
				c0-0.2-0.1-0.3-0.2-0.4c-0.1-0.1-0.2-0.2-0.3-0.3c-0.1-0.1-0.2-0.2-0.4-0.2c-0.1,0-0.3-0.1-0.4-0.1c-0.3,0-0.6,0.1-0.8,0.3
				c-0.2,0.2-0.4,0.4-0.5,0.7l0,0H56.4z"/>
		</g>
		<path class="st5" d="M61,79.1v-8.4h0.7v8.4H61z"/>
		<g>
			<path class="st5" d="M67.9,72.7v5.5h-0.8v-5.5h-1.9v-0.7h4.6v0.7H67.9z"/>
			<path class="st5" d="M73.9,77.7c-0.2,0.2-0.4,0.4-0.7,0.5c-0.3,0.1-0.5,0.2-0.9,0.2c-0.3,0-0.6-0.1-0.9-0.2
				c-0.3-0.1-0.5-0.3-0.7-0.5c-0.2-0.2-0.4-0.4-0.5-0.7c-0.1-0.3-0.2-0.6-0.2-0.9c0-0.3,0.1-0.6,0.2-0.8c0.1-0.3,0.3-0.5,0.5-0.7
				c0.2-0.2,0.4-0.4,0.7-0.5C71.7,74,72,74,72.3,74c0.3,0,0.6,0.1,0.8,0.2s0.5,0.3,0.7,0.5c0.2,0.2,0.3,0.4,0.5,0.7
				c0.1,0.3,0.2,0.6,0.2,0.9c0,0,0,0,0,0s0,0,0,0v0h-3.5c0,0.2,0.1,0.4,0.1,0.5c0.1,0.2,0.2,0.3,0.3,0.4c0.1,0.1,0.3,0.2,0.4,0.3
				c0.2,0.1,0.3,0.1,0.5,0.1c0.2,0,0.4,0,0.6-0.1c0.2-0.1,0.3-0.2,0.5-0.3L73.9,77.7z M73.6,75.7L73.6,75.7c0-0.2-0.1-0.3-0.2-0.4
				c-0.1-0.1-0.2-0.2-0.3-0.3c-0.1-0.1-0.2-0.2-0.4-0.2c-0.1,0-0.3-0.1-0.4-0.1c-0.3,0-0.6,0.1-0.8,0.3c-0.2,0.2-0.4,0.4-0.5,0.7
				l0,0H73.6z"/>
			<path class="st5" d="M78.9,77.7c-0.2,0.2-0.4,0.4-0.7,0.5c-0.3,0.1-0.6,0.2-0.9,0.2c-0.3,0-0.6-0.1-0.9-0.2
				c-0.3-0.1-0.5-0.3-0.7-0.5c-0.2-0.2-0.4-0.4-0.5-0.7c-0.1-0.3-0.2-0.5-0.2-0.8s0.1-0.6,0.2-0.9c0.1-0.3,0.3-0.5,0.5-0.7
				c0.2-0.2,0.4-0.4,0.7-0.5C76.7,74,77,74,77.3,74c0.3,0,0.6,0.1,0.9,0.2c0.3,0.1,0.5,0.3,0.7,0.5l-0.5,0.5
				c-0.1-0.1-0.3-0.2-0.5-0.3c-0.2-0.1-0.4-0.1-0.6-0.1c-0.2,0-0.4,0-0.6,0.1s-0.3,0.2-0.5,0.3s-0.2,0.3-0.3,0.5
				c-0.1,0.2-0.1,0.4-0.1,0.6c0,0.2,0,0.4,0.1,0.6c0.1,0.2,0.2,0.3,0.3,0.5c0.1,0.1,0.3,0.2,0.5,0.3c0.2,0.1,0.4,0.1,0.6,0.1
				c0.2,0,0.4,0,0.6-0.1c0.2-0.1,0.3-0.2,0.5-0.3L78.9,77.7z"/>
			<path class="st5" d="M83.9,78.2h-0.7v-2.2c0-0.4-0.1-0.7-0.3-1c-0.2-0.3-0.5-0.4-0.9-0.4c-0.2,0-0.4,0-0.6,0.1
				c-0.2,0.1-0.3,0.2-0.4,0.3c-0.1,0.1-0.2,0.3-0.3,0.5c-0.1,0.2-0.1,0.4-0.1,0.6v2h-0.7v-6.7h0.7v3.1l0,0c0.2-0.2,0.3-0.3,0.6-0.4
				c0.2-0.1,0.5-0.2,0.7-0.2c0.4,0,0.8,0.1,1,0.2c0.3,0.1,0.5,0.3,0.6,0.5c0.2,0.2,0.3,0.4,0.3,0.7c0.1,0.2,0.1,0.5,0.1,0.6V78.2z"
				/>
		</g>
		<path class="st5" d="M88,79.1v-8.4h0.7v8.4H88z"/>
		<g>
			<path class="st5" d="M95.5,74.7c0.1,0.1,0.2,0.1,0.4,0.2c0.1,0.1,0.2,0.2,0.3,0.4c0.1,0.1,0.1,0.3,0.2,0.4c0,0.2,0.1,0.3,0.1,0.5
				c0,0.2,0,0.5-0.1,0.7c-0.1,0.2-0.2,0.4-0.4,0.6c-0.2,0.2-0.3,0.3-0.6,0.4c-0.2,0.1-0.4,0.1-0.7,0.1h-1.8v-6.2h1.5
				c0.2,0,0.5,0,0.7,0.1c0.2,0.1,0.4,0.2,0.5,0.4c0.2,0.2,0.3,0.3,0.4,0.5c0.1,0.2,0.1,0.4,0.1,0.7c0,0.2-0.1,0.5-0.2,0.7
				C95.8,74.4,95.7,74.6,95.5,74.7L95.5,74.7z M94.3,74.5c0.3,0,0.5-0.1,0.7-0.3c0.2-0.2,0.3-0.4,0.3-0.7c0-0.1,0-0.3-0.1-0.4
				c-0.1-0.1-0.1-0.2-0.2-0.3c-0.1-0.1-0.2-0.2-0.3-0.2c-0.1-0.1-0.3-0.1-0.4-0.1h-0.7v2H94.3z M93.6,75.2v2h1c0.1,0,0.3,0,0.4-0.1
				c0.1-0.1,0.2-0.1,0.3-0.2c0.1-0.1,0.2-0.2,0.2-0.3c0.1-0.1,0.1-0.3,0.1-0.4c0-0.1,0-0.3-0.1-0.4c-0.1-0.1-0.1-0.2-0.2-0.3
				c-0.1-0.1-0.2-0.2-0.3-0.2c-0.1-0.1-0.3-0.1-0.4-0.1H93.6z"/>
			<path class="st5" d="M99.4,77.4c0.2,0,0.3,0,0.5-0.1c0.2-0.1,0.3-0.2,0.4-0.3c0.1-0.1,0.2-0.3,0.3-0.4c0.1-0.2,0.1-0.3,0.1-0.5
				v-2.2h0.7V78h-0.7v-0.5l0,0c-0.1,0.2-0.3,0.4-0.6,0.5c-0.3,0.1-0.5,0.2-0.8,0.2c-0.4,0-0.8-0.1-1-0.2c-0.2-0.1-0.4-0.3-0.6-0.5
				c-0.1-0.2-0.2-0.4-0.3-0.7c0-0.2-0.1-0.5-0.1-0.7v-2.1h0.7v2.2c0,0.1,0,0.2,0,0.4c0,0.2,0.1,0.3,0.2,0.5s0.2,0.3,0.4,0.4
				C98.9,77.4,99.1,77.4,99.4,77.4z"/>
			<path class="st5" d="M104.4,74.7c0-0.1-0.1-0.2-0.2-0.2c-0.1-0.1-0.2-0.1-0.3-0.1c-0.2,0-0.3,0.1-0.4,0.2
				c-0.1,0.1-0.2,0.2-0.2,0.4c0,0.1,0,0.2,0.1,0.3c0.1,0.1,0.2,0.2,0.2,0.2l0.8,0.4c0.2,0.1,0.4,0.2,0.6,0.4
				c0.1,0.2,0.2,0.4,0.2,0.7c0,0.2,0,0.3-0.1,0.5c-0.1,0.1-0.2,0.3-0.3,0.4c-0.1,0.1-0.3,0.2-0.4,0.3c-0.2,0.1-0.4,0.1-0.6,0.1
				c-0.2,0-0.4,0-0.5-0.1c-0.2-0.1-0.3-0.1-0.4-0.3c-0.1-0.1-0.2-0.2-0.3-0.4c-0.1-0.1-0.1-0.3-0.1-0.5v-0.1h0.8c0,0,0,0,0,0.1
				c0,0.1,0.1,0.3,0.2,0.4c0.1,0.1,0.3,0.1,0.4,0.1c0.2,0,0.3-0.1,0.5-0.2c0.1-0.1,0.2-0.2,0.2-0.4c0-0.1,0-0.2-0.1-0.3
				c-0.1-0.1-0.1-0.2-0.2-0.2l-0.8-0.3c-0.2-0.1-0.4-0.2-0.6-0.4c-0.1-0.2-0.2-0.4-0.2-0.7c0-0.2,0-0.3,0.1-0.5
				c0.1-0.1,0.2-0.3,0.3-0.4c0.1-0.1,0.3-0.2,0.4-0.3s0.3-0.1,0.5-0.1c0.2,0,0.5,0.1,0.7,0.2c0.2,0.1,0.4,0.3,0.5,0.5L104.4,74.7z"
				/>
			<path class="st5" d="M106.1,72.2c0-0.1,0-0.3,0.1-0.4c0.1-0.1,0.2-0.1,0.4-0.1c0.1,0,0.3,0,0.4,0.1c0.1,0.1,0.1,0.2,0.1,0.4
				c0,0.1,0,0.3-0.1,0.4c-0.1,0.1-0.2,0.1-0.4,0.1c-0.1,0-0.3,0-0.4-0.1C106.2,72.5,106.1,72.4,106.1,72.2z M106.2,78v-4.1h0.8V78
				H106.2z"/>
			<path class="st5" d="M110.4,74.4c-0.2,0-0.3,0-0.5,0.1c-0.2,0.1-0.3,0.2-0.4,0.3c-0.1,0.1-0.2,0.3-0.3,0.4
				c-0.1,0.2-0.1,0.3-0.1,0.5V78h-0.8v-4.1h0.8v0.5l0,0c0.1-0.2,0.3-0.4,0.6-0.5c0.3-0.1,0.5-0.2,0.8-0.2c0.4,0,0.8,0.1,1,0.2
				c0.3,0.1,0.4,0.3,0.6,0.5c0.1,0.2,0.2,0.4,0.3,0.7c0,0.2,0.1,0.5,0.1,0.7V78h-0.8v-2.2c0-0.1,0-0.2,0-0.4s-0.1-0.3-0.2-0.4
				c-0.1-0.1-0.2-0.3-0.4-0.4C110.9,74.5,110.7,74.4,110.4,74.4z"/>
			<path class="st5" d="M117.1,77.5c-0.2,0.2-0.4,0.4-0.7,0.5c-0.3,0.1-0.5,0.2-0.9,0.2c-0.3,0-0.6-0.1-0.9-0.2
				c-0.3-0.1-0.5-0.3-0.7-0.5c-0.2-0.2-0.4-0.4-0.5-0.7c-0.1-0.3-0.2-0.6-0.2-0.9c0-0.3,0.1-0.6,0.2-0.8c0.1-0.3,0.3-0.5,0.5-0.7
				c0.2-0.2,0.4-0.4,0.7-0.5c0.3-0.1,0.5-0.2,0.8-0.2c0.3,0,0.6,0.1,0.8,0.2s0.5,0.3,0.7,0.5c0.2,0.2,0.3,0.4,0.5,0.7
				c0.1,0.3,0.2,0.6,0.2,0.9c0,0,0,0,0,0s0,0,0,0v0h-3.5c0,0.2,0.1,0.4,0.1,0.5s0.2,0.3,0.3,0.4c0.1,0.1,0.3,0.2,0.4,0.3
				c0.2,0.1,0.3,0.1,0.5,0.1c0.2,0,0.4,0,0.6-0.1c0.2-0.1,0.3-0.2,0.5-0.3L117.1,77.5z M116.8,75.4L116.8,75.4
				c0-0.2-0.1-0.3-0.2-0.4c-0.1-0.1-0.2-0.2-0.3-0.3c-0.1-0.1-0.2-0.2-0.4-0.2c-0.1,0-0.3-0.1-0.4-0.1c-0.3,0-0.6,0.1-0.8,0.3
				c-0.2,0.2-0.4,0.4-0.5,0.7l0,0H116.8z"/>
			<path class="st5" d="M120.2,74.7c0-0.1-0.1-0.2-0.2-0.2c-0.1-0.1-0.2-0.1-0.3-0.1c-0.2,0-0.3,0.1-0.4,0.2
				c-0.1,0.1-0.2,0.2-0.2,0.4c0,0.1,0,0.2,0.1,0.3c0.1,0.1,0.2,0.2,0.2,0.2l0.8,0.4c0.2,0.1,0.4,0.2,0.6,0.4
				c0.1,0.2,0.2,0.4,0.2,0.7c0,0.2,0,0.3-0.1,0.5c-0.1,0.1-0.2,0.3-0.3,0.4c-0.1,0.1-0.3,0.2-0.4,0.3c-0.2,0.1-0.4,0.1-0.6,0.1
				c-0.2,0-0.4,0-0.5-0.1c-0.2-0.1-0.3-0.1-0.4-0.3c-0.1-0.1-0.2-0.2-0.3-0.4c-0.1-0.1-0.1-0.3-0.1-0.5v-0.1h0.8c0,0,0,0,0,0.1
				c0,0.1,0.1,0.3,0.2,0.4c0.1,0.1,0.3,0.1,0.4,0.1c0.2,0,0.3-0.1,0.5-0.2c0.1-0.1,0.2-0.2,0.2-0.4c0-0.1,0-0.2-0.1-0.3
				c-0.1-0.1-0.1-0.2-0.2-0.2l-0.8-0.3c-0.2-0.1-0.4-0.2-0.6-0.4c-0.1-0.2-0.2-0.4-0.2-0.7c0-0.2,0-0.3,0.1-0.5
				c0.1-0.1,0.2-0.3,0.3-0.4c0.1-0.1,0.3-0.2,0.4-0.3s0.3-0.1,0.5-0.1c0.2,0,0.5,0.1,0.7,0.2c0.2,0.1,0.4,0.3,0.5,0.5L120.2,74.7z"
				/>
			<path class="st5" d="M123.7,74.7c0-0.1-0.1-0.2-0.2-0.2c-0.1-0.1-0.2-0.1-0.3-0.1c-0.2,0-0.3,0.1-0.4,0.2
				c-0.1,0.1-0.2,0.2-0.2,0.4c0,0.1,0,0.2,0.1,0.3c0.1,0.1,0.2,0.2,0.2,0.2l0.8,0.4c0.2,0.1,0.4,0.2,0.6,0.4
				c0.1,0.2,0.2,0.4,0.2,0.7c0,0.2,0,0.3-0.1,0.5c-0.1,0.1-0.2,0.3-0.3,0.4c-0.1,0.1-0.3,0.2-0.4,0.3c-0.2,0.1-0.4,0.1-0.6,0.1
				c-0.2,0-0.4,0-0.5-0.1c-0.2-0.1-0.3-0.1-0.4-0.3c-0.1-0.1-0.2-0.2-0.3-0.4c-0.1-0.1-0.1-0.3-0.1-0.5v-0.1h0.8c0,0,0,0,0,0.1
				c0,0.1,0.1,0.3,0.2,0.4c0.1,0.1,0.3,0.1,0.4,0.1c0.2,0,0.3-0.1,0.5-0.2c0.1-0.1,0.2-0.2,0.2-0.4c0-0.1,0-0.2-0.1-0.3
				c-0.1-0.1-0.1-0.2-0.2-0.2l-0.8-0.3c-0.2-0.1-0.4-0.2-0.6-0.4c-0.1-0.2-0.2-0.4-0.2-0.7c0-0.2,0-0.3,0.1-0.5
				c0.1-0.1,0.2-0.3,0.3-0.4c0.1-0.1,0.3-0.2,0.4-0.3c0.2-0.1,0.3-0.1,0.5-0.1c0.2,0,0.5,0.1,0.7,0.2c0.2,0.1,0.4,0.3,0.5,0.5
				L123.7,74.7z"/>
		</g>
	</g>
</g>
</svg>
