<?xml version="1.0" encoding="utf-8"?>
<!-- Generator: Adobe Illustrator 25.4.1, SVG Export Plug-In . SVG Version: 6.00 Build 0)  -->
<svg version="1.1" id="Layer_1" xmlns="http://www.w3.org/2000/svg" xmlns:xlink="http://www.w3.org/1999/xlink" x="0px" y="0px"
	 viewBox="0 0 250 250" style="enable-background:new 0 0 250 250;" xml:space="preserve">
<style type="text/css">
	.st0{fill:url(#SVGID_1_);}
	.st1{fill:url(#SVGID_00000165228714854464076120000015481541052749325465_);}
	.st2{fill:url(#SVGID_00000160891704838546529160000007926770186456628622_);}
	.st3{fill:#29B574;}
</style>
<g>
	
		<radialGradient id="SVGID_1_" cx="-4.84" cy="41.5735" r="172.6744" fx="-91.1781" fy="185.3201" gradientTransform="matrix(0.9561 -1.066874e-03 -1.129653e-03 -1.0066 19.8003 239.4851)" gradientUnits="userSpaceOnUse">
		<stop  offset="0.4045" style="stop-color:#29B574"/>
		<stop  offset="0.6883" style="stop-color:#28B375"/>
		<stop  offset="0.7905" style="stop-color:#27AE7D"/>
		<stop  offset="0.8633" style="stop-color:#22A687"/>
		<stop  offset="0.9222" style="stop-color:#1A9C99"/>
		<stop  offset="0.9721" style="stop-color:#158DAF"/>
		<stop  offset="1" style="stop-color:#1181BE"/>
	</radialGradient>
	<path class="st0" d="M55.9,80.7c3.5-5,7.1-9.9,11.6-14.1C93.2,43,123,36.1,155.6,49c13.9,5.5,25,13.4,33.3,23.5
		c14.6,17.6,17.1,37.7,18.3,45.7c0.3,2.5,0.5,4.7,0.7,6c4.5,0,9.1,0,13.6,0c0-1.5-0.2-3.7-0.5-6.2c-0.7-7-2.2-20.9-9.6-35.9
		c-4-8-9.4-15.6-16-22.6c-23.2-24-51.6-33.8-84.7-29.2C83.3,34.3,62,48.3,46,70.8c-0.8,1.2-1.5,2.3-2.4,3.5
		C30.6,95.6,26.4,118.5,30.9,143c4.4,23,16,41.9,34.3,56.5c6.4,5.2,13.3,9.4,20.5,12.6c6.4,2.8,19.8,9,37.5,8.5c0.5,0,0.8,0,1,0
		c0-4.5,0-9.2,0-13.7c-0.2,0-0.5,0-1,0c-5.5-0.2-20-0.8-35.8-9c-9.4-4.9-17.8-11.7-25.2-20.4c-15.8-18.8-21.7-40.5-18.1-64.8
		C45.5,101,49.7,90.4,55.9,80.7z"/>
	
		<radialGradient id="SVGID_00000106142682013943088390000007979068917304544395_" cx="-4.84" cy="41.5735" r="172.6744" fx="-91.1781" fy="185.3201" gradientTransform="matrix(0.9561 -1.066874e-03 -1.129653e-03 -1.0066 19.8003 239.4851)" gradientUnits="userSpaceOnUse">
		<stop  offset="0.4045" style="stop-color:#29B574"/>
		<stop  offset="0.6883" style="stop-color:#28B375"/>
		<stop  offset="0.7905" style="stop-color:#27AE7D"/>
		<stop  offset="0.8633" style="stop-color:#22A687"/>
		<stop  offset="0.9222" style="stop-color:#1A9C99"/>
		<stop  offset="0.9721" style="stop-color:#158DAF"/>
		<stop  offset="1" style="stop-color:#1181BE"/>
	</radialGradient>
	<path style="fill:url(#SVGID_00000106142682013943088390000007979068917304544395_);" d="M77.4,101.8c12.1-24.1,39-35.2,64-27.1
		c6,2,11.6,4.9,16.3,8.5c16.8,13.1,19.5,34,20.2,39.7c0,0.5,0.2,1,0.2,1.3c4.5,0,9.1,0,13.8,0c0-0.3,0-1-0.2-1.7
		c0,0-0.5-7.4-1.8-13.1c-6.7-29-31.9-50.6-64-51.1c-13.3-0.2-25.7,3.4-37,10.7c-9.4,6.2-17,14.1-22.2,24c-4.5,7.7-7.1,16.1-7.9,25
		c-2,23.5,5.7,43.1,23.9,58.3c3.9,3.4,8.1,6,12.3,8.2c4,2,14.3,7.2,27.7,7c0.7,0,1.2,0,1.5,0c0-4.5,0-9,0-13.6c-0.2,0-0.5,0-0.8,0
		c-3.7-0.2-11.8-0.8-20.3-4.9c-5-2.3-9.7-5.5-13.9-9.5c-11.1-10.4-16.6-23.5-16.8-38.5c-0.2-7.7,1.7-15.1,4.9-22.1
		C77.1,102.3,77.3,102.1,77.4,101.8z"/>
	
		<radialGradient id="SVGID_00000004540397753965773790000005453809666234444462_" cx="-4.84" cy="41.5735" r="172.6744" fx="-91.1781" fy="185.3201" gradientTransform="matrix(0.9561 -1.066874e-03 -1.129653e-03 -1.0066 19.8003 239.4851)" gradientUnits="userSpaceOnUse">
		<stop  offset="0.4045" style="stop-color:#29B574"/>
		<stop  offset="0.6883" style="stop-color:#28B375"/>
		<stop  offset="0.7905" style="stop-color:#27AE7D"/>
		<stop  offset="0.8633" style="stop-color:#22A687"/>
		<stop  offset="0.9222" style="stop-color:#1A9C99"/>
		<stop  offset="0.9721" style="stop-color:#158DAF"/>
		<stop  offset="1" style="stop-color:#1181BE"/>
	</radialGradient>
	<path style="fill:url(#SVGID_00000004540397753965773790000005453809666234444462_);" d="M235.7,66.8c-15.3-29.2-37.8-43.9-44-47.7
		c-17.3-10.9-37.8-17.3-61-18.8C108.4-1.2,87,3.8,67.2,14.3C50.9,22.9,37,34.4,25.9,49.2c-6.6,8.4-11.9,17.4-16,27.3
		C1,97.4-1.9,119.2,1.2,141.8c3.7,26.5,14.6,49.4,33.1,68.9C45.5,222.4,58,231.6,71.7,238c9.1,4.2,27.7,13.1,51.9,11.9
		c0.3,0,0.5,0,0.7,0c0-4.5,0-9.2,0-13.7c-0.2,0-0.7,0-1.2,0c0,0-8.2,0-15.1-1.2c-28.1-4.7-51.4-17.8-69.2-39.9
		c-23-29.2-30.1-61.7-21.7-97.3c3.4-13.9,9.6-26.6,17.8-38.4c0.2-0.2,0.5-0.5,0.7-0.7C44,47.5,54.3,38.1,66.2,30.6
		C82.3,20.5,100,15,118.8,14c20-1.2,39,2.7,56.6,11.9c16.1,8.5,29.1,19.3,39,32.3c0,0,16.5,21.9,20.3,47.4
		c1.2,7.7,1.7,17.1,1.7,17.1c0,0.7,0,1.2,0,1.3c4.5,0,9.1,0,13.6,0c0-0.3,0-0.7,0-1.2C249.7,94.6,239.1,73,235.7,66.8z"/>
	<polygon class="st3" points="219.8,156.9 219.8,136.1 164.4,136.1 139.1,136.1 139.1,156.9 139.1,183 139.1,183 139.1,202.8 
		139.1,202.8 139.1,228.9 139.1,250 164.4,250 219.8,250 219.8,228.9 164.4,228.9 164.4,202.8 214.8,202.8 214.8,183 164.4,183 
		164.4,156.9 	"/>
</g>
</svg>
