<svg width="110" height="18" viewBox="0 0 110 18" fill="none" xmlns="http://www.w3.org/2000/svg"><g clip-path="url(#clip0_10117_75952)" fill="#fff"><path d="M.515 8.344c.388-2.066 2.174-3.497 4.658-3.497 2.873 0 5.125 1.272 5.125 5.246v7.39H7.813l-.31-1.589c-.854 1.113-2.019 1.828-3.727 1.828-2.097 0-3.727-1.351-3.727-3.815 0-2.463 2.174-4.053 5.202-4.053H7.27v-.556c0-1.43-1.01-1.828-2.174-1.828-.854 0-1.708.318-2.097 1.43L.515 8.345zm3.96 6.755c1.397 0 2.795-.953 2.795-2.543v-.238H5.329c-1.32-.08-2.097.477-2.097 1.59 0 .556.466 1.191 1.243 1.191zm54.583-6.755c.389-2.066 2.174-3.497 4.659-3.497 2.873 0 5.124 1.272 5.124 5.246v7.39h-2.484l-.311-1.589c-.854 1.113-2.019 1.828-3.727 1.828-2.096 0-3.727-1.351-3.727-3.815 0-2.463 2.175-4.053 5.202-4.053h2.02v-.556c0-1.43-1.01-1.828-2.175-1.828-.854 0-1.708.318-2.096 1.43l-2.485-.556zm3.96 6.755c1.398 0 2.795-.953 2.795-2.543v-.238h-2.019c-1.32 0-2.096.477-2.096 1.59.078.556.544 1.191 1.32 1.191zm8.542 2.464V5.006h3.028v2.067c.854-1.51 2.252-2.226 3.572-2.226.544 0 1.01.08 1.475.239l-.543 2.86c-.388-.238-.777-.396-1.243-.396-1.785 0-3.26 1.51-3.26 5.483v4.45l-3.028.08zM86.08 4.848c1.242 0 2.407.636 2.95 1.35V0h3.029v17.563h-3.028v-1.271c-.389.635-1.476 1.51-2.951 1.51-3.65 0-5.513-2.623-5.513-6.438 0-3.814 1.864-6.516 5.513-6.516zm.466 10.252c1.553 0 2.795-1.351 2.795-3.815S88.1 7.47 86.546 7.47s-2.795 1.351-2.795 3.815 1.242 3.815 2.795 3.815zm16.382-8.265l-1.786 1.669c-.544-.795-1.398-1.113-2.019-1.113-.621 0-1.165.398-1.165 1.033 0 .557.466.954 1.165 1.192 1.708.636 4.426 1.193 4.426 3.815 0 2.305-1.708 4.133-4.348 4.133-2.563 0-4.271-1.828-4.814-3.338l2.407-1.351c.465 1.192 1.242 2.066 2.484 2.066.932 0 1.553-.477 1.553-1.351 0-1.033-1.553-1.271-3.028-1.907-1.32-.557-2.485-1.43-2.485-3.338 0-1.907 1.553-3.656 3.883-3.656 1.553.08 3.028.954 3.727 2.146zM40.347 5.007l-2.174 8.662-2.096-8.662h-2.795l-2.02 8.662-1.707-5.007-.233.557-.932 3.258 1.553 5.086h2.64l2.096-8.106 2.096 8.106h2.718l3.882-12.556h-3.028zm14.518 0l-2.174 8.662-2.096-8.662h-2.796l-2.018 8.662-1.709-5.007-.233.557-1.009 3.258 1.63 5.086h2.64l2.097-8.106 2.096 8.106h2.64l3.96-12.556h-3.028zm-26.01 0l-3.882 12.477h-2.64l-2.097-8.027-2.096 8.106H15.5L11.618 5.086h3.028l2.174 8.583 2.096-8.583h2.796l2.096 8.583 2.174-8.583 2.873-.08zm78.653 8.503c1.165 0 2.019.874 2.019 2.066 0 1.192-.854 2.067-2.019 2.067s-2.018-.875-2.018-2.067c0-1.192.853-2.066 2.018-2.066z"/></g><defs><clipPath id="clip0_10117_75952"><path fill="#fff" d="M0 0h110v17.722H0z"/></clipPath></defs></svg>